<svg width="172" height="172" viewBox="0 0 172 172" fill="none" xmlns="http://www.w3.org/2000/svg">
<g clip-path="url(#clip0_4088_644)">
<path d="M155.254 87.4203C155.4 87.7588 155.713 87.4288 155.808 87.4378C155.419 86.9497 155.16 87.4885 155.254 87.4203Z" fill="#15BFFD"/>
<path d="M151.396 82.6356L151.601 82.6427L150.78 82.0811L151.396 82.6356Z" fill="#15BFFD"/>
<path d="M148.767 74.7917C148.782 74.3315 149.079 75.3001 148.767 74.7917V74.7917Z" fill="#15BFFD"/>
<path d="M142.375 66.1827L142.795 66.629L142.565 66.1503L142.375 66.1827Z" fill="#15BFFD"/>
<path d="M103.736 120.917L103.347 121.204C103.487 121.122 103.617 121.026 103.736 120.917Z" fill="#15BFFD"/>
<path d="M106.755 119.719L106.748 119.501C106.659 119.663 106.633 119.761 106.755 119.719Z" fill="#15BFFD"/>
<path d="M138.209 74.9839C138.023 75.115 137.817 75.2153 137.599 75.2809C137.523 75.308 137.48 75.32 137.481 75.3334C137.501 75.3563 137.527 75.3733 137.555 75.3826C137.584 75.3919 137.615 75.3931 137.645 75.3861C137.796 75.3672 137.949 75.3567 138.102 75.3545C138.038 75.2066 138.101 75.1097 138.209 74.9839Z" fill="#15BFFD"/>
<path d="M127.223 103.238L127.456 103.2C127.456 102.989 127.449 102.778 127.44 102.59C127.379 102.791 127.309 103.009 127.223 103.238Z" fill="#15BFFD"/>
<path d="M127.409 105.271C127.698 105.172 127.973 105.037 128.229 104.871L127.409 105.271Z" fill="#15BFFD"/>
<path d="M86.6726 125.943L86.2039 126.458C87.0373 126.352 86.64 126.176 86.6726 125.943Z" fill="#15BFFD"/>
<path d="M103.161 116.031C102.951 116.199 102.887 116.333 102.924 116.418C103.13 116.234 103.238 116.095 103.161 116.031Z" fill="#15BFFD"/>
<path d="M26.853 107.279C26.8339 107.229 26.8015 107.18 26.7894 107.137C26.7339 107.17 26.7798 107.218 26.853 107.279Z" fill="#15BFFD"/>
<path d="M20.3036 90.4745C20.2331 90.2429 20.1182 90.0274 19.9652 89.8398C20.0904 90.0445 20.2034 90.2565 20.3036 90.4745Z" fill="#15BFFD"/>
<path d="M124.515 74.1535C124.545 74.0783 124.832 73.9105 124.515 74.1535V74.1535Z" fill="#15BFFD"/>
<path d="M125.127 73.9938C124.954 74.0379 124.785 74.0986 124.623 74.1752C124.796 74.1298 124.965 74.0691 125.127 73.9938Z" fill="#15BFFD"/>
<path d="M124.943 73.8583L125.255 73.7061C125.261 73.6153 125.186 73.6054 124.943 73.8583Z" fill="#15BFFD"/>
<path d="M124.515 74.1535C124.438 74.2376 124.291 74.3216 124.064 74.4732C124.244 74.354 124.434 74.2508 124.633 74.1647C124.549 74.1787 124.506 74.1774 124.515 74.1535Z" fill="#15BFFD"/>
<path d="M57.0917 123.165C57.0655 123.144 57.0409 123.122 57.0181 123.098C56.5624 123.176 56.7476 123.191 57.0917 123.165Z" fill="#15BFFD"/>
<path d="M140.611 85.548C140.611 85.548 140.59 85.5289 140.609 85.4945L140.564 85.5436L140.611 85.548Z" fill="#15BFFD"/>
<path d="M140.379 87.0983C140.253 86.8495 140.203 86.5691 140.236 86.2921C140.268 86.0151 140.381 85.7537 140.561 85.5404C140.102 85.5587 139.63 85.5709 139.18 85.5652C139.593 86.0756 139.99 86.5901 140.379 87.0983Z" fill="#15BFFD"/>
<path d="M66.1685 126.416C66.2279 126.431 66.2892 126.437 66.3504 126.434L66.1685 126.416Z" fill="#15BFFD"/>
<path d="M131.454 99.8057C131.56 99.3257 131.7 98.854 131.874 98.3943C132.05 97.8574 132.276 97.3382 132.549 96.8434C132.634 97.6509 133.211 97.446 133.687 97.8796C133.205 97.9593 132.984 98.3923 132.752 98.9498C132.544 99.5461 132.229 100.1 131.823 100.583C132.285 100.075 132.451 100.399 132.435 100.615C132.762 99.8682 133.086 99.132 133.365 98.3743C133.754 98.7282 133.974 98.2048 134.506 97.8243C133.41 97.621 134.902 95.9813 135.139 95.0178C135.467 95.1499 135.663 95.5397 134.945 96.4622C136.333 95.8033 134.802 94.41 135.999 93.7063C135.863 93.9542 135.737 94.0574 135.833 94.2406C135.921 93.5323 136.882 92.2361 136.972 92.7148L136.846 92.9655C137.102 92.5578 137.4 92.0541 137.675 91.4912C137.951 90.9283 138.207 90.3092 138.414 89.7294C138.795 88.5512 138.97 87.5134 138.604 87.2187C138.976 87.4394 139.318 87.7074 139.621 88.0159C139.38 87.3096 139.102 86.6084 138.835 85.9235C138.568 85.2386 138.272 84.5718 137.962 83.9123C138.59 84.4327 140.655 83.9095 140.581 85.5394C140.952 84.9822 141.151 84.3278 141.153 83.658C140.954 83.9256 139.871 84.0605 139.932 83.6485C141.072 82.8033 140.58 83.0277 141.658 81.8435C141.381 82.2321 140.375 81.4579 140.561 80.7818C140.719 80.9253 141.721 80.9921 141.798 81.2668C141.551 80.5809 141.298 79.9087 141.053 79.2697C141.163 79.7407 142.012 79.5465 142.392 79.2066C142.137 79.3528 142.674 77.6508 142.64 77.1527L142.242 77.8723C142.366 77.475 142.367 77.0495 142.245 76.6515C142.124 76.3356 141.969 76.0337 141.783 75.7511C141.434 75.0935 141.044 74.6558 141.134 73.6489C141.405 73.7524 141.704 73.7538 141.976 73.6528C142.212 73.556 142.415 73.3916 142.558 73.1803C142.701 72.9689 142.779 72.72 142.782 72.4646C142.266 72.1573 141.698 71.9466 141.106 71.8427C140.385 71.7056 139.66 71.9041 139.383 71.7159C139.499 71.4824 139.616 71.2422 139.731 70.9886C139.661 70.9329 139.585 70.8836 139.506 70.8416L139.461 70.8001L139.44 70.781L139.373 70.8546L139.097 71.1224C139.258 70.9036 139.457 70.6427 139.671 70.3643C139.711 70.3088 139.757 70.2582 139.809 70.2136L139.928 70.1175C140.006 70.0518 140.088 69.9919 140.175 69.9382C140.448 69.7505 140.768 69.6425 141.099 69.6264C140.914 69.8296 140.641 70.0872 140.922 69.9969C141.09 69.878 141.267 69.7711 141.45 69.6769C141.732 69.7546 141.993 69.8921 142.217 70.0801C142.045 70.112 141.884 70.1852 141.747 70.2933C141.92 70.2477 142.1 70.2392 142.276 70.2684C142.174 70.4577 141.707 70.4361 141.9 70.6819C142.574 70.469 142.068 71.2641 142.506 70.5929C142.803 70.7868 142.485 70.9326 142.64 71.2338C143.223 70.9719 143.883 70.9336 144.493 71.1264C144.326 71.1891 144.173 71.2816 144.039 71.3993C144.2 71.9685 144.022 72.3827 144.227 72.8962C144.088 73.0067 144 73.3294 143.672 73.3449C143.817 73.3682 144.068 73.3463 144.162 73.5095C143.725 74.0466 143.93 73.1952 143.343 73.7057C143.736 73.5699 144.04 73.8976 144.38 74.009C144.942 73.6941 144.266 73.4309 143.952 73.3182C144.335 73.153 144.749 73.074 145.166 73.0868C145.583 73.0997 145.992 73.204 146.363 73.3924C146.738 73.7336 145.916 73.7925 146.062 73.8225C146.211 74.4962 147.184 74.1519 147.432 74.4286L147.428 74.4254C147.472 74.4972 147.477 74.6042 147.421 74.7645C147.017 75.2429 146.406 75.2114 146.047 75.4362C145.706 75.1773 146.15 74.7741 146.032 74.5516L145.91 74.9396C145.693 74.9029 145.464 74.7259 145.562 74.5402C145.189 74.9501 146.036 75.9129 145.872 76.7053C146.092 76.7386 146.369 76.863 146.541 76.6738L146.377 76.5239C146.696 76.1736 147.106 76.6371 147.202 76.3207C147.604 76.4494 148.185 76.5427 148.106 77.0025L147.551 77.3237C147.722 77.2419 147.798 76.9399 147.579 76.9133C147.903 76.9517 147.024 77.8113 147.862 77.6445L148.166 77.1338C148.571 77.2656 149.331 77.3103 149.283 77.7083C149.798 77.3118 149.187 77.6659 149.759 77.1426C149.008 77.7078 149.439 76.3126 148.697 77.0149C149.381 76.4394 148.856 76.4675 149.391 75.8722C149.204 75.9649 149.068 76.1423 149.05 75.8313C148.985 75.842 148.919 75.8463 148.853 75.8439L148.834 75.8649C148.794 75.8668 148.801 75.8665 148.834 75.8649C148.778 75.9692 148.697 76.0582 148.598 76.1242C148.098 76.1813 147.927 75.7501 147.636 75.7034C147.657 75.5046 147.886 75.6748 148.052 75.4993L147.62 75.4325C148.039 75.225 148.152 74.7066 148.564 74.9722L148.437 74.6261C148.453 74.6086 148.469 74.5911 148.482 74.577L148.775 74.9589C148.77 74.9109 148.771 74.8624 148.778 74.8146C148.689 74.6734 148.608 74.5272 148.536 74.3766C148.567 74.2861 148.562 74.1869 148.521 74.1004C148.48 74.0138 148.406 73.9469 148.316 73.9141C148.344 73.715 147.669 73.7099 148.078 73.6973L147.601 73.2637L147.706 73.2118C147.554 72.6757 146.543 72.4283 147.076 71.5044C146.962 71.4493 146.866 71.364 146.798 71.2578C146.729 71.1515 146.692 71.0285 146.689 70.9023L147.041 70.6912C146.815 70.5174 147.147 69.8713 146.706 69.9189C147.618 69.269 146.5 68.7381 146.504 68.255L146.003 68.4396C145.867 68.1261 145.639 67.8609 145.35 67.679L144.923 67.8668C144.438 67.6951 144.931 66.9844 144.709 66.5321C144.885 66.5003 144.888 66.6377 144.82 66.7616C145.242 66.3829 144.82 65.826 144.452 65.4979C144.085 65.1698 143.707 64.9093 143.863 64.2312C143.651 64.154 143.646 63.9698 143.678 63.7302C143.682 63.7384 143.687 63.7457 143.694 63.7517C143.701 63.7577 143.708 63.7623 143.717 63.7653L143.689 63.676C143.715 63.5205 143.754 63.351 143.773 63.1825C143.725 63.3293 143.691 63.4802 143.67 63.6333C143.59 63.4501 143.463 63.2908 143.303 63.1711L143.629 62.6091C143.617 62.5959 143.604 62.5841 143.59 62.5741C143.631 62.1563 143.351 62.6122 143.122 63.0891C143.019 63.0501 142.905 63.0518 142.803 63.094C143.055 62.606 142.95 62.517 142.853 62.4344C142.755 62.3518 142.66 62.2591 142.899 61.6375C142.591 61.9337 142.319 61.0075 141.847 61.7373C141.827 61.3861 141.793 61.0155 141.593 61.1792L141.88 60.1596C141.656 60.4146 141.449 60.6843 141.261 60.9668C141.357 60.087 141.399 59.5485 141.76 59.0956C141.431 59.3022 141.353 59.2891 141.259 59.2801C141.164 59.2712 141.1 59.2507 140.843 59.6384L141.056 58.904C140.966 58.6936 140.638 59.4133 140.722 58.6381C140.74 58.3466 140.732 58.054 140.698 57.764C140.498 57.7298 140.084 58.2691 139.664 58.7449C139.244 59.2208 138.803 59.6909 138.375 59.7111C138.503 60.5065 138.378 60.4118 138.247 60.3375C138.116 60.2632 137.9 60.1694 137.956 60.8475C137.862 60.5065 137.682 60.4446 137.815 59.9186C137.691 60.2183 137.473 60.4698 137.194 60.6352C137.01 60.7814 136.856 61.0066 136.814 61.6659C136.657 61.4017 136.784 61.0436 136.677 60.9011C136.653 61.033 136.593 61.3946 136.483 61.2623C136.373 61.13 136.472 60.894 136.514 60.6505C135.947 61.415 136.278 62.3954 136.609 63.2986C136.223 63.1458 136.11 63.3758 136.239 64.0639C136.039 63.8821 135.737 63.7991 135.972 63.3656C135.81 63.5006 134.722 64.2393 135.158 64.752C134.994 64.6859 134.904 64.9752 134.922 65.075C134.836 65.1696 134.766 65.2466 134.708 65.3097C134.651 65.3728 134.629 65.3973 134.59 65.4393C134.491 65.5341 134.407 65.6432 134.341 65.763L134.494 65.749C135.004 66.3857 134.421 66.1113 134.294 66.4124L134.231 66.355C133.324 66.5285 134.241 66.7737 133.277 66.8828L133.662 67.1631C134.435 67.9114 132.777 67.2283 132.817 67.8099L133.024 67.8572L132.848 67.889L132.8 67.9415C132.335 67.8125 131.525 67.4214 131.357 67.4797C131.255 67.4509 131.295 67.3216 131.288 67.2247C130.424 67.2587 131.73 67.7103 131.555 68.141C131.242 67.9713 130.951 67.4753 130.711 67.661C130.399 67.5818 131.012 69.0553 130.223 68.9013C130.48 69.0133 130.73 69.1256 130.763 69.3923C130.728 69.4376 130.69 69.4798 130.648 69.5184C130.341 69.6301 129.666 69.5278 129.832 69.9995C129.793 70.021 129.752 70.0398 129.711 70.0555C129.713 70.004 129.703 69.9527 129.679 69.9067C129.656 69.8607 129.621 69.8217 129.578 69.7935C129.585 69.8954 129.632 69.9905 129.707 70.059C129.47 70.163 129.24 70.2837 129.02 70.4201L129.422 70.6828C129.229 70.7959 129.085 70.7222 128.927 70.7129C129.047 70.9251 129.137 70.9679 129.196 70.9584C129.212 70.969 129.226 70.9819 129.238 70.9966C129.175 71.0263 129.115 71.0652 129.063 71.1122C129.029 71.1358 129 71.167 128.98 71.2033C128.675 71.4893 128.393 71.848 127.847 71.4981C127.662 71.7013 128.145 71.7691 128.147 71.9501L128.076 72.0272L127.826 71.9015C127.752 71.8346 127.623 71.8004 127.695 71.6998L127.356 72.031L127.307 71.9864C127.363 71.967 127.349 71.8267 127.37 71.7687C126.919 71.7296 126.938 72.4262 126.783 72.4134L127.138 72.3129C127.042 72.5091 126.922 72.6927 126.781 72.8595C126.394 73.0471 125.97 73.1429 125.54 73.1393C125.694 73.2796 126.069 73.262 125.241 73.6933C125.232 73.7852 125.21 73.8754 125.176 73.9613L125.113 73.981L125.17 73.975C125.138 74.01 125.135 74.0135 125.17 73.975C125.357 73.9244 125.554 73.9244 125.74 73.975C125.635 74.5903 124.56 75.3217 124.163 75.8065L124.12 75.8186L124.099 75.7994L124.098 75.8364C124.007 75.8626 123.919 75.8959 123.834 75.936C123.832 75.8321 123.999 75.5929 123.75 75.5778L123.311 76.2926C122.996 75.9353 121.65 76.4078 122.619 75.4902L121.611 76.0843C120.862 76.2067 120.164 76.5449 119.604 77.0574C119.093 77.2325 118.645 78.1892 118.888 77.6412L117.745 78.5233L118.526 79.9386C119.886 78.9087 119.31 77.9231 121.258 77.4155C121.382 77.3997 121.508 77.4178 121.622 77.4679C121.737 77.518 121.836 77.5983 121.908 77.7001C121.59 78.0505 121.083 78.4667 120.764 78.817C121.062 79.0881 121.586 78.7515 122.075 78.3193C122.082 78.3737 122.099 78.4263 122.126 78.474C122.153 78.5217 122.189 78.5635 122.232 78.597C122.194 78.639 122.162 78.6741 122.099 78.6938C122.019 78.6762 121.935 78.68 121.856 78.7049C121.777 78.7298 121.706 78.7749 121.65 78.8357C121.688 78.7936 121.635 78.7391 121.68 78.6967C121.448 78.6842 121.507 78.9363 121.418 79.0981C121.329 79.1325 121.246 79.1665 121.16 79.1907L121.143 79.1748C121.093 79.1939 121.044 79.2063 121.001 79.2184L120.98 79.1992C120.964 79.1917 120.947 79.1879 120.93 79.1879C120.913 79.1879 120.896 79.1918 120.88 79.1993C120.865 79.2068 120.851 79.2177 120.841 79.2312C120.83 79.2447 120.823 79.2604 120.819 79.2772L120.464 79.3644C120.21 79.4167 119.966 79.5074 119.739 79.6333L120.508 79.4361L120.588 79.5665C120.273 79.9231 119.861 80.1802 119.402 80.3064C119.731 80.2853 120.051 80.1947 120.342 80.0408C120.313 80.0724 120.288 80.1004 120.259 80.1319L120.284 80.1542L120.252 80.1893L121.135 80.9927C120.706 81.3013 120.5 81.3312 120.399 81.2588L120.705 80.8319C120.392 80.8802 120.317 80.7865 120.092 80.7166L120.219 80.9856C119.922 81.1298 119.641 81.3026 119.378 81.5014L120.162 82.9198L120.509 82.652L120.593 82.7285C121.088 82.4547 121.561 82.142 122.007 81.7933L123.409 83.0687C123.417 83.052 123.421 83.0333 123.42 83.0145L123.518 83.1038L123.639 82.9707L123.734 83.0568L123.706 82.9038C123.739 82.8715 123.77 82.8376 123.799 82.8022L123.708 82.7193C123.705 82.6979 123.708 82.6763 123.714 82.6557C123.721 82.6352 123.731 82.6163 123.746 82.6001L124.062 83.1956C123.892 82.5798 124.836 83.0484 124.847 82.6287C124.429 83.0877 124.325 82.442 123.953 82.3087C123.935 82.2454 123.912 82.1837 123.884 82.1241C123.891 82.0685 123.917 82.0172 123.958 81.9795C124 81.9418 124.053 81.9203 124.109 81.919C124.316 82.1071 124.275 82.5953 124.372 82.5103L124.492 82.2933L124.391 82.2713C124.356 82.1593 124.315 82.0493 124.268 81.9417C124.676 82.0567 125.279 82.5413 125.578 81.994C125.545 82.1364 125.035 82.1403 125.011 81.8363C125.256 81.7575 125.52 81.7579 125.765 81.8376C126.085 81.3531 125.415 81.5188 125.304 81.2323L125.346 81.1867L125.297 81.1421C125.879 81.403 125.325 80.7584 125.367 80.4312L125.738 80.7692C126.094 80.625 125.933 80.4146 125.772 80.2109C125.842 80.1622 125.906 80.1075 125.966 80.0475L126.137 80.3949L126.227 80.0352L126.6 80.4704C126.534 79.9235 126.691 79.9128 127.043 79.7721C126.839 79.65 126.679 79.4661 126.586 79.247C126.678 79.1778 126.779 79.1094 126.888 79.0416C126.954 79.1022 126.982 79.1277 127.117 78.9235C127.281 79.2075 127.496 79.5563 127.031 79.3836C127.134 79.5096 127.196 79.6676 127.299 79.7936C127.701 79.8585 127.741 79.4273 127.846 79.305C127.817 79.3265 127.784 79.3417 127.75 79.3497C127.715 79.3577 127.679 79.3583 127.643 79.3514L127.591 78.6631L127.795 78.573C127.833 78.6391 127.864 78.7098 127.885 78.7834C127.901 78.714 127.904 78.6421 127.892 78.5718L128.231 78.7973C128.254 78.7692 128.279 78.7423 128.304 78.7167C128.407 78.8416 128.459 79.0009 128.449 79.1626L128.516 78.5826C128.585 78.5425 128.66 78.5088 128.732 78.4719C128.912 78.5137 129.118 78.5543 129.16 78.663C129.326 78.6283 129.361 78.4422 129.357 78.201C129.969 77.9508 130.564 77.7115 130.604 77.4145C131.886 77.941 134.107 75.6767 135.447 75.1609L135.244 74.6809C135.46 74.5701 135.678 74.4357 135.87 74.316C135.965 74.2545 136.101 74.1676 136.156 74.1214L136.226 74.0444C136.373 73.8832 136.526 73.715 136.677 73.5L136.623 72.9895C136.716 72.8507 136.841 72.7367 136.988 72.6573C137.135 72.5779 137.299 72.5356 137.467 72.5339C137.754 72.5136 137.946 72.5985 138.254 72.3727C138.054 72.6907 137.964 72.6916 137.925 72.5861C137.923 72.8914 137.973 72.9561 138.139 72.851C138.171 72.9769 138.293 72.9913 138.413 73.0493C138.488 73.0708 138.557 73.1117 138.611 73.168C138.666 73.2244 138.704 73.294 138.723 73.3701C138.745 73.505 138.738 73.6429 138.705 73.7753C138.671 73.9077 138.611 74.032 138.528 74.1405C138.693 74.2266 138.622 74.4312 138.493 74.6016C138.491 74.5942 138.487 74.5875 138.481 74.5824C138.476 74.5773 138.469 74.574 138.461 74.5729C138.456 74.5995 138.452 74.6266 138.452 74.6538C138.356 74.7589 138.26 74.864 138.177 74.9551C138.279 74.8776 138.365 74.7827 138.433 74.6748C138.446 74.8691 138.488 75.0603 138.557 75.2424C138.388 75.2727 138.217 75.293 138.046 75.3034C138.046 75.3034 138.046 75.3034 138.074 75.3289C137.841 75.7188 138.264 75.719 138.669 75.4987C138.714 75.733 138.789 75.9606 138.892 76.1757C138.063 76.4461 138.955 77.5141 138.029 77.8628C138.127 78.0305 138.174 78.2226 138.166 78.4164C138.175 78.6675 138.162 78.9766 138.167 79.2883C138.119 79.7607 138.226 80.2359 138.472 80.6421C138.182 81.103 138.052 81.6466 138.102 82.1887L137.433 82.2202C137.596 82.6821 137.738 83.1381 137.885 83.6175C137.288 84.2023 136.986 84.4009 136.742 83.564C136.817 84.1035 136.809 84.6512 136.718 85.1882C136.649 85.6719 136.646 86.1629 136.71 86.6474L136.354 86.426C136.175 86.9039 136.327 87.9263 135.889 88.0844C135.495 88.413 135.17 88.8157 134.932 89.2697C134.613 89.838 134.213 90.5376 133.802 91.2713C133.39 92.0049 132.894 92.7828 132.399 93.5171C131.912 94.2072 131.355 94.8438 130.734 95.4164C132.069 95.6386 129.472 96.2405 130.16 96.8922C129.823 96.8611 129.435 97.0907 129.541 96.5592C129.225 97.0992 128.829 97.5873 128.365 98.0063C128.16 98.1775 127.993 98.388 127.871 98.6253C127.75 98.8626 127.678 99.1218 127.658 99.3876C127.327 99.3362 127.557 98.8659 127.326 98.8735C127.295 99.0057 127.2 99.3992 126.962 99.4137C126.725 99.4283 126.93 99.0833 127.001 98.8083C126.018 100.008 126.541 100.721 127.057 101.364C126.221 101.699 125.975 102.012 125.942 102.815C125.543 102.824 125.016 102.953 125.651 102.185C125.431 102.363 124.78 102.917 124.19 103.418C123.6 103.918 123.121 104.501 123.317 104.763C123.072 104.751 122.686 105.239 122.613 105.403C121.635 106.204 121.501 106.21 120.571 107.035L120.907 106.906C120.946 107.069 120.927 107.242 120.854 107.393C120.782 107.545 120.659 107.667 120.507 107.739C120.13 107.9 119.776 108.11 119.456 108.366L119.429 108.283C118.337 108.744 118.165 108.926 117.999 109.115C117.834 109.304 117.661 109.486 116.542 109.851L116.92 110.195C117.323 111.202 114.892 110.784 113.974 111.786L114.53 111.787C114.315 112.129 113.696 112.084 113.046 111.967C112.397 111.85 111.724 111.661 111.381 111.778C111.2 111.773 111.52 111.526 111.677 111.361C109.748 111.714 111.79 112.06 110.63 112.849C110.239 112.66 110.498 111.91 109.644 112.285C109.375 112.264 108.912 112.836 108.311 113.384C108.014 113.671 107.689 113.927 107.341 114.148C107.02 114.351 106.646 114.457 106.265 114.45C106.634 114.58 107.005 114.707 106.497 115.167C105.911 115.396 105.293 115.532 104.665 115.568C103.989 115.677 103.371 115.87 103.105 116.423C102.96 116.4 102.888 116.353 102.858 116.294C102.544 116.533 102.006 116.857 101.494 117.166C101.06 117.383 100.683 117.698 100.394 118.087C99.7536 117.382 98.7333 118.004 97.7385 118.527C96.7436 119.05 95.8546 119.612 95.6402 118.834L93.4493 119.665L93.4679 119.489C92.921 119.577 92.393 119.757 91.9068 120.022C91.6108 120.212 91.3469 120.447 91.1248 120.72C90.758 120.693 90.9764 120.489 90.9892 120.404C90.4312 120.447 90.0074 120.491 89.6508 120.538C89.3417 120.566 89.0365 120.628 88.7406 120.721C88.0821 120.983 87.4614 121.332 86.8947 121.757L86.6174 121.281C86.158 121.638 83.3767 120.971 81.3034 121.736C81.3199 121.681 81.3485 121.63 81.3872 121.588C81.4258 121.545 81.4735 121.512 81.5266 121.49C80.3505 121.938 78.8673 121.632 77.6243 121.513C76.3812 121.394 75.3118 121.33 74.8834 122.273C74.3578 122.435 73.8183 122.585 73.2682 122.725C75.3537 122.931 72.944 123.531 73.8113 123.859C72.9703 123.946 71.6826 123.235 72.6988 123.167L72.8543 123.264C73.2515 122.299 70.2826 122.845 70.3674 122.154C66.2873 121.964 62.4385 120.844 58.7842 119.939L59.0346 120.769C58.6041 120.672 58.1784 120.535 57.7534 120.41C57.4626 120.146 57.4523 119.714 58.3537 119.983C57.9827 119.441 56.7381 119.928 56.6647 120.079C54.9584 119.308 57.5991 119.412 57.0514 119.246L56.2968 119.104L56.4405 119.235C55.7566 119.381 55.6063 119.68 54.5352 119.294C53.9009 118.929 54.3277 118.734 54.0709 118.622C54.106 118.584 54.0056 118.518 53.6647 118.47L52.8867 118.185C52.6305 118.086 52.3804 117.974 52.1239 117.869L52.5439 118.667C51.7533 118.684 51.0844 118.082 51.5766 118.991C51.2248 118.287 49.7854 117.701 48.4272 117.06C47.7452 116.747 47.035 116.479 46.5198 116.221C46.1426 116.063 45.7912 115.849 45.4772 115.586C44.935 115.543 44.4029 115.415 43.9 115.208C43.3723 114.952 42.8623 114.661 42.3734 114.338C42.5839 114.606 42.4182 115.288 41.4934 114.664C42.023 114.16 41.6532 113.785 41.1436 113.359C40.6339 112.934 39.9761 112.425 39.8815 111.769C40.032 112.258 39.3601 111.877 38.7109 111.549C38.0616 111.221 37.4828 110.893 37.716 111.643C37.0152 111.005 37.9692 111.182 37.599 110.512C37.0686 110.294 36.57 110.006 36.1167 109.656C35.6631 109.281 35.2267 108.846 34.7607 108.422C33.8447 107.556 33.0177 106.515 31.9601 105.707C31.8007 105.811 31.9391 106.328 31.3363 106.132C31.19 105.589 31.0692 105.018 30.9474 104.497C30.5205 104.192 29.8596 104.897 29.6323 103.774C29.615 103.976 29.5926 104.282 29.2976 104.072C28.9037 103.54 28.5416 102.974 28.1251 102.46C27.7085 101.947 27.2627 101.451 26.8557 100.927C26.0318 99.8827 25.1006 98.9071 24.3115 97.8175C22.5634 95.7473 21.3549 93.2766 20.7936 90.6258C20.8238 91.4091 20.5343 91.0303 20.3029 90.5315C20.3802 90.8901 19.8962 90.7251 19.7065 90.8983L19.3766 88.5933C19.2703 88.5714 19.1699 88.5273 19.082 88.4638C18.994 88.4003 18.9205 88.3189 18.8663 88.225C18.7258 87.9873 18.6053 87.7383 18.5059 87.4807C18.2898 86.951 18.075 86.448 17.7331 86.4507L18.104 87.0637C17.0292 86.457 17.0132 88.9662 16.0431 89.2299C16.6624 89.5628 16.6824 90.3433 16.8069 91.2059C16.8414 91.6307 16.9356 92.0485 17.0866 92.447C17.2984 92.8863 17.6518 93.2417 18.0899 93.456C18.1043 93.9047 17.6435 93.306 17.5468 93.6023C18.1468 93.8088 18.4894 94.2487 18.8251 95.2524L18.6754 95.2058C19.3429 96.2036 19.9379 97.2481 20.4557 98.3312L21.2825 99.865C21.6134 100.509 21.9776 101.136 22.3736 101.742L22.6087 101.251C22.84 101.596 23.0017 101.982 23.0849 102.389C24.1724 102.552 21.8738 100.813 22.984 100.888C22.8778 101.554 23.6549 102.53 24.4099 103.467C25.165 104.404 25.9609 105.282 25.7448 105.892C26.4774 106.706 25.9437 105.273 26.6628 106.087L26.6422 106.504L27.1247 106.424C27.5795 106.966 27.5642 107.497 27.3994 107.699C27.2307 107.541 27.0454 107.403 26.8467 107.286C27.2522 108.205 28.7947 109.058 28.9686 109.332C28.7508 109.05 28.5269 108.783 28.3282 108.48C28.9105 108.952 29.5303 109.44 30.132 109.968L31.0325 110.787C31.3373 111.065 31.6737 111.3 31.9944 111.56C32.6385 112.063 33.2762 112.573 33.9404 113.004C34.5857 113.415 35.2607 113.776 35.9598 114.086L35.9148 113.77C36.5358 114.015 37.103 114.379 37.585 114.841C38.0893 115.356 38.6788 115.78 39.3274 116.094L39.2235 116.096C39.8252 116.179 40.4022 116.389 40.9159 116.713C40.2522 116.647 41.6381 117.736 40.8036 117.604C43.074 118.389 42.0036 117.876 43.7926 117.839L43.937 118.342C44.5557 118.176 45.2141 118.253 45.7781 118.557C44.7725 118.423 46.2078 119.422 45.0607 119.345C45.7987 120.027 46.7313 120.461 47.7282 120.588C48.4875 120.76 49.0846 120.836 49.4032 121.619C50.8643 121.027 47.5939 120.299 48.2851 120.307C48.1045 120.033 48.3958 119.953 48.8193 119.973C49.2773 119.983 49.7281 120.09 50.1419 120.286C50.8661 120.567 50.9109 122.088 52.8563 122.667C52.6687 122.598 52.6285 122.671 52.4376 122.606C53.0776 123.092 53.9583 122.709 54.7185 123.401C55.3966 122.916 55.8716 123.745 56.2286 122.994C55.6235 122.892 55.0095 122.813 54.4066 122.688C55.4773 122.778 56.6554 122.089 58.1823 122.966C57.8437 123.121 57.4763 123.203 57.1038 123.208C57.5208 123.587 58.0741 123.303 58.5229 123.647C58.1816 124.445 56.3052 123.269 55.0629 123.592C55.5012 124.068 57.2783 123.565 56.5134 124.272C57.0522 123.82 57.5135 124.003 58.0555 124.189C58.6475 124.475 59.3261 124.524 59.9534 124.328L59.7607 124.793C60.119 124.703 60.491 124.681 60.8575 124.728L60.0281 125.203C60.303 125.135 60.5907 125.138 60.8636 125.214C61.1277 125.286 61.384 125.384 61.6286 125.506C62.0896 125.787 62.6184 125.936 63.158 125.937C60.9275 125.573 62.7609 125.268 61.8791 124.773C64.6229 124.574 63.2974 126.263 66.1636 126.456C65.6771 126.379 64.9163 125.962 65.4944 125.847C66.0858 125.999 66.646 126.253 67.1495 126.598C69.2017 126.665 66.8802 126.077 67.778 125.844C68.4188 126.491 68.7994 125.671 69.6888 125.546L69.6653 126.043C70.8105 126.291 70.9655 126.022 71.115 125.78C71.2646 125.539 71.3536 125.293 72.3768 125.513L71.4794 126.182L72.569 126.034L72.3306 126.598C73.5293 126.203 73.8881 126.344 75.0514 126.48C74.7801 126.131 75.1962 125.568 76.2109 125.537C76.9118 125.823 75.8311 126.018 77.2785 125.919C76.9597 126.27 76.6185 126.645 75.97 126.189C75.9039 126.353 75.6495 126.506 75.5835 126.67C76.35 126.996 77.4945 126.731 78.0184 126.676C77.8252 126.685 77.6319 126.659 77.448 126.599L79.5156 125.784C79.8555 125.952 79.6085 126.118 79.3579 126.281C79.7899 126.115 80.2328 125.978 80.6834 125.873C80.5519 126.285 80.6253 126.704 79.7479 126.943L80.7404 126.655L81.7278 126.33C81.8925 126.48 82.8088 126.712 82.5621 126.884C83.239 126.879 83.9053 126.715 84.5081 126.407C85.1975 126.059 85.9574 125.875 86.7294 125.866C86.865 125.721 87.0415 125.62 87.2356 125.578C87.9335 125.515 88.595 125.534 89.2929 125.471C90.052 125.433 90.7895 125.206 91.4382 124.81L92.5118 125.319C93.7383 124.872 91.0775 124.699 93.118 123.949C94.5366 123.383 93.8143 124.423 94.3844 124.493C95.0319 123.929 96.0967 122.9 97.6004 123.071C97.2138 123.263 96.803 123.402 96.3791 123.484C96.7564 123.519 97.1534 123.548 97.5173 123.584C96.4646 124.586 95.4789 124.592 96.6126 124.881C96.388 123.53 100.586 123.527 100.29 122.142L101.043 122.187C100.851 122.243 100.845 122.334 100.657 122.387C102.164 122.567 101.276 121.087 102.997 120.673C103.596 120.578 104.073 120.596 103.749 120.903L104.884 120.085C105.192 119.987 105.246 120.138 105.066 120.251C105.644 119.989 106.208 119.701 106.775 119.429L106.774 119.473C107.048 119.065 107.348 118.674 107.671 118.304C108.23 118.274 107.491 118.55 107.684 118.655L108.583 117.872C109.163 118.009 108.449 118.723 107.71 118.999C109.268 119.821 108.439 118.311 110.871 118.032L109.965 118.675C110.947 119.075 111.602 118.461 112.936 118.311C112.743 118.263 112.046 118.282 111.518 118.18C110.99 118.077 110.635 117.876 111.115 117.447C111.622 117.349 112.074 117.061 112.378 116.643C112.617 117.085 113.142 116.698 113.855 116.245L114.128 116.853C114.817 116.243 114.587 115.989 114.902 115.468C115.172 115.306 115.486 115.231 115.801 115.255C116.115 115.278 116.415 115.399 116.658 115.6C118.089 114.859 115.284 115.47 116.839 114.381C118.097 113.886 118.753 113.157 119.818 111.923C120.711 111.583 119.919 112.348 120.303 112.313L120.669 111.41C120.835 111.299 120.88 111.468 120.904 111.554C121.34 110.976 120.559 110.983 121.32 110.196C121.215 109.812 121.824 109.713 122.513 109.476C123.203 109.239 124.023 108.928 124.256 108.166C124.628 108.095 124.396 108.582 124.637 108.712C125.685 107.103 125.594 107.379 126.204 105.814C126.615 105.631 127.032 105.447 127.435 105.243C126.416 105.553 126.869 104.274 127.248 103.21C126.918 103.26 126.591 103.328 126.269 103.414C126.565 102.94 126.876 102.486 127.148 102.004C127.363 101.937 127.419 102.212 127.434 102.597C127.47 102.489 127.499 102.379 127.523 102.268C128.101 102.013 128.177 102.492 128.153 103.06C127.921 103.118 127.686 103.172 127.449 103.207C127.449 103.777 127.491 104.365 127.826 104.581C127.878 104.393 127.968 104.218 128.09 104.065C128.091 104.22 128.113 104.336 128.194 104.346C128.275 104.355 128.308 104.129 128.377 103.814L129.172 104.045L129.022 103.773C129.635 103.332 130.279 102.913 130.874 102.442C131.112 101.576 131.263 100.734 131.454 99.8057ZM148.061 74.4694C148.132 74.2078 148.09 74.3037 148.061 74.4694V74.4694ZM121.04 76.7819L121.015 76.8099C120.356 76.9986 120.592 76.9439 121.027 76.7959L121.04 76.7819ZM140.216 66.6264L140.294 66.4148C140.285 66.6567 140.598 66.32 140.943 66.0321C141.087 65.9002 141.249 65.7888 141.424 65.7009C141.045 66.0487 140.637 66.363 140.204 66.6404L140.216 66.6264ZM141.424 65.7009C141.568 65.6338 141.679 65.6386 141.725 65.7639C141.706 65.7849 141.684 65.8094 141.664 65.8304C141.202 66.1896 140.805 66.6258 140.491 67.1198C140.946 66.752 141.443 66.4414 141.973 66.1948C142.293 66.05 142.634 65.9602 142.984 65.9293L143.191 66.7008C143.094 66.7021 142.997 66.71 142.893 66.7182L142.771 66.6066L142.831 66.7379C142.56 66.7559 142.291 66.7888 142.024 66.8363C141.462 66.9401 140.918 67.1215 140.406 67.3753C140.225 67.6588 140.088 67.6686 140.157 67.7894C140.105 67.8347 140.05 67.8765 139.992 67.9146C140.111 67.5652 140.286 67.2376 140.51 66.9445C140.898 66.4333 141.338 65.886 141.411 65.715L141.424 65.7009ZM143.658 68.6373C143.704 68.7882 143.74 68.9423 143.763 69.0984L143.314 69.2403L143.299 68.7716L143.658 68.6373ZM143.317 69.3072L143.768 69.1217L143.818 69.4681C143.787 69.5086 143.753 69.5461 143.716 69.5802C143.589 69.6813 143.443 69.7555 143.287 69.7983C143.307 69.6401 143.313 69.4805 143.304 69.3213L143.317 69.3072ZM144.448 68.4659C144.272 68.8096 144.068 69.1378 143.837 69.4471L143.84 69.0915L144.074 68.9966L143.839 69.0714L143.846 68.5714C144.029 68.5059 144.216 68.4512 144.405 68.4076L144.448 68.4659ZM140.098 67.9599C140.327 67.811 140.572 67.6881 140.829 67.5935C140.634 67.7247 140.433 67.845 140.225 67.9539L140.098 67.9599ZM143.849 66.7168L143.849 66.6397L143.963 66.7114C143.92 66.7235 143.876 66.7222 143.84 66.7273L143.849 66.7168ZM141.861 61.7367C141.816 61.7857 141.786 61.8609 141.746 61.9399C141.787 61.8106 141.814 61.6685 141.851 61.7472L141.861 61.7367ZM140.435 63.6416C140.245 64.3278 140.007 65.0001 139.725 65.6535C139.699 65.8928 139.657 66.1363 139.839 65.8662C139.994 65.2585 140.186 64.6605 140.411 64.0752L140.156 65.1939C140.117 65.3701 140.095 65.5422 139.938 66.1364C140.006 65.8516 140.698 64.3166 140.742 64.5493C140.631 64.7557 140.059 66.067 139.974 66.1884C140.214 65.79 140.489 65.4145 140.797 65.0665C140.481 65.5735 140.21 66.1069 139.987 66.6607C140.072 66.4822 140.075 66.6129 140.074 66.7404C139.508 67.1091 138.972 67.4026 138.898 67.329C139.248 67.0073 139.628 66.6675 140.021 66.327C139.425 66.4826 138.795 67.0555 138.203 67.5864C137.768 68.0592 137.222 68.4167 136.615 68.627C136.507 68.4007 136.177 68.2284 136.227 67.9276C135.976 67.6544 136.29 67.7033 136.619 67.708C136.948 67.7126 137.304 67.6589 137.085 67.2869C137.26 67.423 137.424 67.5722 137.576 67.7333C137.496 67.5628 137.43 67.3866 137.377 67.2061C137.333 67.064 137.263 66.9231 137.135 66.4999C137.277 66.553 137.414 66.616 137.547 66.6884C137.335 66.4609 137.172 66.1928 137.067 65.9002C136.962 65.6077 136.918 65.2969 136.937 64.9868L137.031 65.0728L137.001 64.9234C137.052 64.8673 137.123 64.8237 137.188 64.7737C137.24 64.9557 137.28 65.1584 137.309 65.3448C137.214 65.2587 137.109 65.1631 137.008 65.0706C137.11 65.5351 137.279 65.9824 137.509 66.3984C137.483 66.3164 137.477 66.2294 137.491 66.1444C137.515 66.2452 137.555 66.3417 137.608 66.4306C137.657 66.4753 137.597 66.3239 137.553 66.1113C137.681 66.3367 137.806 66.5722 137.931 66.8078L137.809 66.4983C137.957 66.563 138.093 66.6504 138.214 66.7576C138.087 65.8078 138.1 64.8445 138.254 63.8986C138.327 63.818 138.397 63.7409 138.495 63.6893C138.503 64.2154 138.576 64.6144 138.609 65.3171C138.537 64.8678 138.473 65.0586 138.428 65.3323C138.384 65.606 138.361 65.9626 138.277 65.9565C138.364 65.9591 138.407 66.3829 138.421 66.5365C138.442 66.1616 138.482 65.788 138.543 65.4175C138.596 66.1762 138.637 65.9194 138.694 66.1951C138.577 64.7116 138.849 64.9269 138.985 64.2632C138.974 64.5219 138.963 64.7874 138.946 65.0095L138.879 65.083L138.939 65.0735C138.91 65.2962 138.87 65.4524 138.813 65.4517C138.866 65.9354 138.899 65.5751 138.956 65.0694C139.145 65.0374 139.335 65.0162 139.526 65.0056L139.528 64.6869C139.621 64.5853 139.722 64.5236 139.799 64.4529L139.585 65.3214C139.677 64.9952 139.773 64.6855 139.869 64.3825C139.944 64.3047 140.011 64.2195 140.069 64.1283C139.864 64.7684 139.667 65.4282 139.475 66.118C139.742 65.2336 139.744 65.4279 139.706 65.688C139.852 65.1479 139.986 64.5916 140.128 64.035C140.163 63.9972 140.187 63.951 140.199 63.9008C140.214 63.8291 140.241 63.7601 140.276 63.696L140.22 63.645L140.26 63.4955L140.216 63.6351C140.195 63.6159 140.178 63.6 140.155 63.6178L140.098 63.6809C140.302 63.1112 140.514 62.5613 140.745 62.0541C140.77 62.0765 140.773 62.0797 140.784 62.0121C140.921 61.7206 141.058 61.4358 141.203 61.164C141.01 61.6292 140.72 62.716 140.431 63.6451L140.435 63.6416ZM134.373 71.2813C134.389 71.418 134.513 71.7743 134.248 71.6292C134.102 71.4516 134.058 71.3598 134.069 71.319C134.123 71.3014 134.179 71.2876 134.235 71.2777C134.28 71.2835 134.324 71.2858 134.369 71.2848L134.373 71.2813ZM136.424 68.5622C136.45 68.5342 136.505 68.5718 136.551 68.6133L136.457 68.6244L136.424 68.5622ZM137.725 65.4929C137.756 65.7128 137.683 65.6726 137.543 65.545C137.566 65.4568 137.624 65.4138 137.722 65.4964L137.725 65.4929ZM139.125 64.3773C139.249 63.741 139.418 63.9141 139.296 64.5336L139.258 64.5756L138.939 64.926L138.955 64.8313C139.021 64.2514 139.125 63.6027 139.161 64.0772C139.166 64.1272 139.157 64.0606 139.121 64.3808L139.125 64.3773ZM139.66 64.1475L139.523 64.2982C139.558 64.2596 139.576 64.2052 139.603 64.1469C139.62 64.1534 139.639 64.1549 139.657 64.151L139.66 64.1475ZM139.848 63.9408C139.977 63.6788 140.075 63.403 140.142 63.1188C140.125 63.1934 140.054 63.4683 139.976 63.8007L139.848 63.9408ZM138.525 63.1782L138.41 63.3043C138.445 63.2021 138.477 63.0966 138.523 62.9972L138.525 63.1782ZM137.188 64.71C137.131 64.773 137.074 64.8361 137.016 64.8992L136.931 64.5142L136.945 64.9495C136.813 64.8225 136.667 64.7112 136.51 64.6179C136.524 64.5468 136.547 64.4652 136.567 64.3939C136.587 64.3225 136.737 64.1645 136.825 64.0396C136.861 64.162 136.896 64.3281 136.934 64.5107L136.926 64.273C137.062 64.3807 137.152 64.5358 137.178 64.7071L137.188 64.71ZM136.711 63.827C136.76 63.8738 136.794 63.934 136.81 64.0001C136.714 64.1052 136.647 64.2425 136.572 64.3668C136.597 64.1778 136.635 64.0016 136.69 63.8146L136.711 63.827ZM129.619 70.8244L129.616 70.8983C129.525 70.913 129.433 70.9173 129.342 70.9113C129.412 70.8275 129.492 70.7466 129.598 70.7919L129.619 70.8244ZM127.866 71.9634L128.016 72.1709L127.924 72.2725C127.75 72.2594 127.584 72.1988 127.443 72.0973C127.574 72.0304 127.712 71.9778 127.854 71.9404L127.866 71.9634ZM122.033 77.7814L122.064 77.8605C122.013 77.8528 122.005 77.8263 122.033 77.7814ZM120.6 79.4049L120.829 79.3438C120.784 79.4011 120.735 79.455 120.682 79.505L120.6 79.4049ZM125.627 80.04L125.604 79.9874C125.643 79.9454 125.684 79.8998 125.722 79.8578L125.845 79.8352C125.766 79.9295 125.702 79.9996 125.614 80.054L125.627 80.04ZM135.712 72.6668C135.478 72.6685 135.245 72.6896 135.014 72.7299C134.48 72.8304 133.936 72.8684 133.393 72.8432C133.32 72.8267 133.252 72.7932 133.194 72.7452L133.443 72.3311L133.474 72.3598C133.374 72.1461 133.29 71.9246 133.225 71.6975C133.255 71.6751 133.287 71.6546 133.32 71.636C133.376 71.687 133.296 71.7813 133.417 71.8461L133.398 71.5854C133.46 71.5523 133.518 71.516 133.581 71.4829C133.78 71.6646 133.781 71.9664 133.654 72.1065C134.803 72.7231 133.816 71.8574 134.409 71.6987L134.302 71.7675L134.854 72.667L134.678 72.0784C135.305 72.354 135.306 72.0086 135.882 72.0653C135.629 71.9632 134.451 71.8007 134.433 71.2851C134.476 71.2835 134.518 71.2711 134.556 71.2492L134.669 71.2371C134.643 71.2357 134.618 71.23 134.594 71.2205C134.649 71.1609 134.677 71.059 134.628 70.8668C134.996 71.2016 135.042 70.9613 135.196 70.7428L135.662 71.1669C135.693 70.8368 135.422 70.6282 135.3 70.3187C135.337 70.2927 135.379 70.2746 135.424 70.2656C135.468 70.2566 135.514 70.2568 135.559 70.2663C135.876 71.0201 136.034 71.8312 136.023 72.6488L135.712 72.6668ZM134.515 71.6602C134.532 71.6762 134.578 71.6539 134.615 71.6555L134.571 71.8521L134.515 71.6602ZM138.509 80.7075C138.55 80.7605 138.599 80.8058 138.656 80.8414C138.555 80.8394 138.47 80.9608 138.509 80.7075ZM53.8402 118.707L54.0574 118.905C53.4593 118.879 53.6537 118.806 53.8542 118.72L53.8402 118.707ZM110.072 118.087C110.138 117.416 110.499 117.547 111.042 117.464C110.829 117.706 110.419 118.268 110.086 118.099L110.072 118.087ZM128.744 102.854C128.932 102.592 129.181 102.379 129.469 102.233C129.478 102.491 129.166 102.707 128.758 102.867L128.744 102.854Z" fill="#15BFFD"/>
<path d="M118.57 79.9399L119.428 81.4957L118.57 79.9332L118.57 79.9399Z" fill="#15BFFD"/>
<path d="M105.051 120.288C104.996 120.314 104.943 120.344 104.884 120.367C104.944 120.35 105.001 120.324 105.051 120.288Z" fill="#15BFFD"/>
<path d="M128.119 104.674C128.016 104.669 127.916 104.634 127.832 104.574C127.806 104.716 127.873 104.79 128.119 104.674Z" fill="#15BFFD"/>
<path d="M86.7552 125.845L86.7084 125.847C86.688 125.875 86.6756 125.908 86.6727 125.943L86.7552 125.845Z" fill="#15BFFD"/>
<path d="M127.709 71.7059L127.767 71.6428C127.744 71.661 127.725 71.6822 127.709 71.7059Z" fill="#15BFFD"/>
<path d="M123.602 75.1489C123.905 75.0843 123.466 74.5953 123.693 74.655C123.681 74.0352 122.432 76.2234 123.602 75.1489Z" fill="#15BFFD"/>
<path d="M119.834 78.4451C119.827 78.6567 118.957 79.3181 119.895 78.9553C119.899 78.7472 121.005 77.736 119.834 78.4451Z" fill="#15BFFD"/>
<path d="M142.876 74.3314C143.066 75.4458 142.804 76.1356 143.57 75.6032C143.821 74.5116 143.64 74.3859 143.472 74.3033C143.304 74.2207 143.175 74.1932 143.365 73.2453C143.14 72.887 143.072 74.7782 142.876 74.3314Z" fill="#15BFFD"/>
<path d="M142.877 74.3314C142.842 74.1469 142.793 73.9653 142.73 73.7883C142.758 73.9743 142.807 74.1565 142.877 74.3314Z" fill="#15BFFD"/>
<path d="M19.3035 86.9703L19.2252 86.1625L19.0758 86.7631L19.3035 86.9703Z" fill="#15BFFD"/>
<path d="M18.0167 85.8505L18.581 85.4416L17.8322 85.2086C17.9268 85.3651 18.0993 85.6823 18.0167 85.8505Z" fill="#15BFFD"/>
<path d="M113.025 117.559L113.8 117.579L113.779 117.406C113.577 117.311 113.393 117.394 113.025 117.559Z" fill="#15BFFD"/>
<path d="M102.958 121.906L103.153 121.853L102.589 121.41L102.958 121.906Z" fill="#15BFFD"/>
<path d="M94.7361 125.197C94.8395 125.181 94.9406 125.153 95.0373 125.113C94.9345 125.132 94.8336 125.16 94.7361 125.197Z" fill="#15BFFD"/>
<path d="M93.8186 125.509C94.1345 125.435 94.4429 125.332 94.7396 125.201C94.071 125.316 93.5649 124.894 93.8186 125.509Z" fill="#15BFFD"/>
<path d="M148.803 86.4633C148.87 86.6647 149.372 86.6344 149.26 86.6228C149.312 86.5164 148.879 86.4933 148.803 86.4633Z" fill="#15BFFD"/>
<path d="M152.641 86.7017L152.813 86.6534L152.304 86.6002L152.641 86.7017Z" fill="#15BFFD"/>
<path d="M151.896 85.1338C151.298 85.6013 152.273 85.6493 152.18 86.0326L152.062 86.1622L152.66 86.0268C152.388 85.7344 151.821 85.4626 151.896 85.1338Z" fill="#15BFFD"/>
<path d="M152.952 83.84C152.967 83.8176 152.986 83.7976 153.006 83.7804C152.977 83.7285 152.957 83.6714 152.948 83.6121C152.715 83.7908 152.64 83.5428 152.952 83.84Z" fill="#15BFFD"/>
<path d="M153.006 83.7804C153.188 83.5807 153.104 83.9335 153.006 83.7804V83.7804Z" fill="#15BFFD"/>
<path d="M152.838 83.1981C152.974 83.0844 152.917 82.8724 153.062 82.8958C152.833 82.7322 152.701 82.8491 152.505 83.0931L152.838 83.1981Z" fill="#15BFFD"/>
<path d="M151.919 83.1173L152.069 83.184C152.124 83.1311 152.132 83.0938 151.919 83.1173Z" fill="#15BFFD"/>
<path d="M152.197 83.2619C151.989 83.3354 152.197 83.2619 152.392 83.3299L152.073 83.1873C151.982 83.2586 151.76 83.3697 152.197 83.2619Z" fill="#15BFFD"/>
<path d="M152.35 83.5096C152.261 83.6982 152.244 83.9002 151.91 83.7885C152.199 84.1605 152.648 83.8644 152.35 83.5096Z" fill="#15BFFD"/>
<path d="M151.167 85.3861L151.049 85.6432L151.338 85.6765C151.197 85.6564 151.376 85.269 151.167 85.3861Z" fill="#15BFFD"/>
<path d="M152.235 81.5666C152.054 81.6736 151.879 81.7905 151.711 81.9166L151.954 82.0024C151.989 81.8267 152.089 81.6709 152.235 81.5666Z" fill="#15BFFD"/>
<path d="M151.699 81.9305L151.344 81.8064C151.404 82.0215 151.549 82.0181 151.699 81.9305Z" fill="#15BFFD"/>
<path d="M151.112 83.3566L151.156 83.4283L151.854 83.5832L151.112 83.3566Z" fill="#15BFFD"/>
<path d="M152.218 80.6418L151.604 80.6272L151.823 80.6537L152.218 80.6418Z" fill="#15BFFD"/>
<path d="M151.484 80.0762C151.808 80.0508 151.886 79.7252 152.109 79.7549C151.904 79.6163 151.662 79.5434 151.415 79.5462C151.59 79.6285 151.628 79.7843 151.484 80.0762Z" fill="#15BFFD"/>
<path d="M151.418 79.5427C151.29 79.4897 151.152 79.4642 151.013 79.4679C151.144 79.5089 151.281 79.534 151.418 79.5427Z" fill="#15BFFD"/>
<path d="M151.547 80.9853L151.191 81.2637L151.226 81.3593C151.372 81.2751 151.486 81.1431 151.547 80.9853Z" fill="#15BFFD"/>
<path d="M151.194 81.2602L151.12 81.0457L151.181 81.2675L151.194 81.2602Z" fill="#15BFFD"/>
<path d="M151.234 81.3857L151.216 81.3697C151.19 81.3911 151.181 81.4016 151.234 81.3857Z" fill="#15BFFD"/>
<path d="M150.344 82.8496C150.668 82.8242 150.79 82.5703 151.225 82.6269C150.932 82.5905 150.554 82.407 150.344 82.8496Z" fill="#15BFFD"/>
<path d="M150.787 81.7354L150.811 82.0327C150.916 81.9809 151.048 81.864 151.193 81.8806L150.787 81.7354Z" fill="#15BFFD"/>
<path d="M150.6 81.667L150.787 81.7353L150.779 81.6251L150.6 81.667Z" fill="#15BFFD"/>
<path d="M150.827 80.0803C150.743 80.0736 150.663 80.0447 150.594 79.9967C150.525 79.9487 150.47 79.8832 150.435 79.807C150.418 79.976 150.443 80.1465 150.509 80.3032C150.655 80.2695 150.911 80.234 150.827 80.0803Z" fill="#15BFFD"/>
<path d="M150.962 80.6775L150.934 80.652C150.896 80.694 150.893 80.7109 150.962 80.6775Z" fill="#15BFFD"/>
<path d="M149.842 78.46L149.784 78.523L149.857 78.4995L149.842 78.46Z" fill="#15BFFD"/>
<path d="M150.455 80.3695C150.425 80.5151 150.553 80.5358 150.708 80.542C150.628 80.4788 150.563 80.3996 150.516 80.3096C150.456 80.3258 150.416 80.3411 150.455 80.3695Z" fill="#15BFFD"/>
<path d="M150.65 79.1831C150.593 79.2742 150.547 79.3721 150.513 79.4746C150.622 79.3622 150.766 79.1542 150.65 79.1831Z" fill="#15BFFD"/>
<path d="M151.021 80.5774L151.039 80.5934C151.115 80.5093 151.086 80.5207 151.021 80.5774Z" fill="#15BFFD"/>
<path d="M150.708 80.5419C150.771 80.5959 150.845 80.6368 150.925 80.6625C150.95 80.6281 150.979 80.5964 151.011 80.5679C150.911 80.545 150.809 80.5363 150.708 80.5419Z" fill="#15BFFD"/>
<path d="M149.952 79.0149L150.046 79.101C150.108 78.8781 150.228 78.6758 150.394 78.5145C150.221 78.4364 150.025 78.4276 149.846 78.49L150.009 79.0155L149.952 79.0149Z" fill="#15BFFD"/>
<path d="M150.498 79.4988C150.456 79.5444 150.434 79.5689 150.459 79.5409C150.403 79.5603 150.347 79.573 150.297 79.5854C150.315 79.4035 150.391 79.5173 150.459 79.5409L150.525 79.5176L150.084 79.1159C150.073 79.2472 150.146 79.3712 150.297 79.5854C150.148 79.6152 149.995 79.6291 149.843 79.6269C149.657 79.3875 149.479 79.1545 149.31 78.9243C149.486 78.8039 149.655 78.6727 149.815 78.5317C149.713 78.5838 149.6 78.6091 149.486 78.6051C149.372 78.6011 149.261 78.5679 149.163 78.5087C149.134 78.5352 149.107 78.5646 149.083 78.5963C148.883 78.3238 148.726 78.0225 148.615 77.7028C148.448 78.0695 148.651 78.4524 148.951 78.854C148.857 79.0563 148.732 79.2433 148.478 79.2049C148.134 78.9495 148.489 78.8691 148.612 78.6152C148.537 78.679 148.446 78.7205 148.349 78.7349C148.121 78.5276 147.981 77.6891 147.807 77.8315L147.896 78.4376L148.318 78.7262C147.979 78.7758 147.583 78.5563 147.06 78.8626L147.435 79.0495C147.33 79.1014 147.114 79.0714 147.049 79.1985C147.435 79.0495 147.914 79.1913 147.623 79.6242C147.885 79.7091 148.511 79.4013 149.077 79.0258C149.234 79.2197 149.4 79.4164 149.554 79.6204C149.405 79.6537 149.267 79.7287 149.159 79.8369C149.312 80.1113 149.556 79.9355 149.8 79.9911C149.88 80.1292 149.944 80.2757 149.991 80.4281L149.925 80.6559L150.671 80.7583C150.458 80.4497 150.215 80.1258 149.959 79.8026C149.99 79.8061 150.022 79.8032 150.052 79.7939C150.083 79.7845 150.111 79.7691 150.135 79.7485C150.159 79.7278 150.179 79.7025 150.193 79.6739C150.207 79.6454 150.215 79.6142 150.216 79.5825C150.31 79.6348 150.39 79.7079 150.451 79.7961C150.46 79.6806 150.484 79.5667 150.522 79.4574L150.498 79.4988Z" fill="#15BFFD"/>
<path d="M149.347 82.987C149.371 82.9615 149.402 82.9428 149.435 82.9325C149.371 82.9188 149.334 82.9239 149.347 82.987Z" fill="#15BFFD"/>
<path d="M149.865 82.7212C149.951 82.4602 150.099 82.2234 150.295 82.0303C150.008 82.2159 149.742 82.4307 149.5 82.6713C149.574 82.6812 149.75 82.6361 149.76 82.7731C149.687 82.9308 149.569 82.8626 149.435 82.9326C149.577 82.9527 149.843 83.0408 149.926 82.7385L149.865 82.7212Z" fill="#15BFFD"/>
<path d="M150.295 82.0302C150.321 82.0107 150.348 81.9926 150.376 81.976C150.376 81.976 150.33 81.9983 150.295 82.0302Z" fill="#15BFFD"/>
<path d="M149.764 81.1497L149.376 80.8293L149.119 81.1969L149.325 81.0899C149.351 81.3637 149.592 81.1981 149.764 81.1497Z" fill="#15BFFD"/>
<path d="M150.476 78.1853L149.76 78.219L150.023 78.324L150.476 78.1853Z" fill="#15BFFD"/>
<path d="M150.119 77.6622L149.829 77.6223L149.734 77.8112L150.119 77.6622Z" fill="#15BFFD"/>
<path d="M133.576 72.5294L133.426 72.3923C133.497 72.4829 133.544 72.5511 133.576 72.5294Z" fill="#15BFFD"/>
<path d="M143.771 63.1994C143.949 62.5807 144.237 61.6315 143.917 62.1094L143.626 62.6261C143.69 62.7055 143.736 62.7979 143.761 62.8969C143.786 62.9959 143.789 63.0991 143.771 63.1994Z" fill="#15BFFD"/>
<path d="M147.216 72.3429C147.257 72.2973 147.261 72.2301 147.279 72.1823C147.265 72.2794 147.258 72.3772 147.256 72.4751L147.869 73.0331C147.935 72.8053 147.627 72.1726 147.86 72.3394C147.519 71.9329 147.369 71.893 147.31 72.0568C147.322 71.9902 147.321 71.9219 147.307 71.8557C147.146 72.1383 146.848 72.4373 147.216 72.3429Z" fill="#15BFFD"/>
<path d="M147.307 71.8558C147.428 71.6455 147.479 71.4419 147.125 71.4083C147.09 71.4468 147.068 71.4713 147.06 71.5287C147.182 71.6014 147.271 71.7188 147.307 71.8558Z" fill="#15BFFD"/>
<path d="M127.39 71.7678L127.461 71.7746C127.412 71.7366 127.383 71.7615 127.39 71.7678Z" fill="#15BFFD"/>
<path d="M148.96 75.5572C149.014 75.5547 149.036 75.6576 148.96 75.5572V75.5572Z" fill="#15BFFD"/>
<path d="M147.356 76.8702C147.426 76.8433 147.5 76.8284 147.575 76.8263C147.499 76.8233 147.424 76.8383 147.356 76.8702Z" fill="#15BFFD"/>
<path d="M144.059 71.3145C144.001 71.3575 143.988 71.3716 144.059 71.3145V71.3145Z" fill="#15BFFD"/>
<path d="M148.855 75.8204C148.888 75.7576 148.908 75.6897 148.916 75.6196C148.884 75.6823 148.863 75.7503 148.855 75.8204Z" fill="#15BFFD"/>
<path d="M149.045 75.7108C149.042 75.7499 149.043 75.7891 149.047 75.828C149.12 75.8112 149.159 75.7825 149.045 75.7108Z" fill="#15BFFD"/>
<path d="M148.877 75.417C148.913 75.478 148.927 75.5496 148.916 75.6197C148.942 75.5917 148.961 75.5706 148.967 75.5636L148.877 75.417Z" fill="#15BFFD"/>
<path d="M137.531 66.3672C137.553 66.4626 137.607 66.5477 137.684 66.6082C137.626 66.5322 137.575 66.4516 137.531 66.3672Z" fill="#15BFFD"/>
<path d="M141.591 70.4651C141.625 70.365 141.687 70.2769 141.77 70.2119C141.742 70.2165 141.715 70.2268 141.69 70.2421C141.666 70.2574 141.644 70.2774 141.628 70.301C141.611 70.3246 141.599 70.3512 141.593 70.3794C141.587 70.4075 141.586 70.4367 141.591 70.4651Z" fill="#15BFFD"/>
<path d="M149.406 76.7502C149.51 76.6983 149.646 76.5846 149.69 76.6563L149.469 76.4555C149.548 76.5591 149.455 76.6607 149.406 76.7502Z" fill="#15BFFD"/>
<path d="M147.916 80.147L148.122 80.04C148.041 79.8896 147.822 79.863 147.804 80.0583C147.875 80.0717 147.845 80.1336 147.916 80.147Z" fill="#15BFFD"/>
<path d="M148.266 77.5516C147.883 77.7407 148.085 77.8418 148.233 77.9825C148.233 77.9825 148.215 77.9665 148.212 77.9633C148.773 77.7759 148.523 77.6569 148.266 77.5516Z" fill="#15BFFD"/>
<path d="M148.265 78.0178C148.309 78.0594 148.338 78.1148 148.346 78.175C148.57 78.0973 148.362 78.087 148.265 78.0178Z" fill="#15BFFD"/>
<path d="M148.49 75.3279C148.429 75.4515 149.012 75.1624 148.873 75.2796C149.411 75.1537 148.041 74.9835 148.49 75.3279Z" fill="#15BFFD"/>
<path d="M147.055 78.2492L147.502 77.9766L147.076 78.0504L147.055 78.2492Z" fill="#15BFFD"/>
<path d="M146.805 76.7151L146.794 77.0509C146.825 77.0361 146.858 77.0288 146.892 77.0295C146.926 77.0303 146.959 77.0391 146.989 77.0552C146.93 76.8802 146.943 76.6482 146.805 76.7151Z" fill="#15BFFD"/>
<path d="M147.165 77.2481C147.126 77.1685 147.065 77.1016 146.989 77.0552C146.995 77.1014 147.016 77.1445 147.047 77.1789C147.079 77.2133 147.12 77.2374 147.165 77.2481Z" fill="#15BFFD"/>
<path d="M146.806 77.8049L146.756 77.5927L146.745 77.9285L146.806 77.8049Z" fill="#15BFFD"/>
<path d="M145.618 73.6623L145.349 73.4168C145.173 73.4552 145.105 73.5791 145.216 73.6678C145.371 73.6873 145.469 73.7632 145.618 73.6623Z" fill="#15BFFD"/>
<path d="M144.411 75.0874L144.702 75.134C144.781 75.0172 144.885 74.9195 145.007 74.848L144.411 75.0874Z" fill="#15BFFD"/>
<path d="M143.703 74.4433C143.879 74.4049 144.146 74.6606 144.164 74.3177C144.004 74.3386 143.517 74.0497 143.703 74.4433Z" fill="#15BFFD"/>
<path d="M135.441 71.5428L135.858 71.6406L135.736 71.529C135.587 71.432 135.526 71.4852 135.441 71.5428Z" fill="#15BFFD"/>
</g>
<defs>
<clipPath id="clip0_4088_644">
<rect width="121.274" height="121.274" fill="white" transform="translate(81.7834 0.1604) rotate(42.3029)"/>
</clipPath>
</defs>
</svg>
