<svg width="116" height="93" viewBox="0 0 116 93" fill="none" xmlns="http://www.w3.org/2000/svg">
<path d="M37.6912 1.49203C37.2714 1.74765 36.8336 1.97241 36.3812 2.16454C35.8716 2.40853 35.3402 2.60428 34.7941 2.74921C35.3188 2.12953 34.7717 1.85415 34.7556 1.21009C35.1468 1.50358 35.6124 1.36398 36.1756 1.14613C36.7503 0.884329 37.3678 0.729176 37.998 0.688243C37.3114 0.705427 37.4307 0.361255 37.5979 0.224385C36.8325 0.504172 36.0764 0.778979 35.3357 1.10079C35.3226 0.575124 34.7922 0.777948 34.1494 0.656608C34.7603 1.58906 32.544 1.64453 31.6845 2.13991C31.5531 1.81149 31.6991 1.40031 32.8619 1.28117C31.4266 0.734224 31.4784 2.80375 30.142 2.42492C30.4151 2.35175 30.5767 2.3714 30.6428 2.17546C30.0707 2.60204 28.4693 2.80324 28.7532 2.40756L29.0212 2.32503C28.5498 2.42212 27.9797 2.55486 27.3826 2.74513C26.7856 2.93541 26.1614 3.17849 25.599 3.4295C24.4847 3.96917 23.6134 4.55962 23.6535 5.02775C23.5558 4.60645 23.5132 4.17426 23.5266 3.742C23.183 4.40454 22.8684 5.09004 22.5582 5.75649C22.2479 6.42294 21.9709 7.09803 21.7084 7.77751C21.6501 6.9639 19.8448 5.83386 21.0737 4.7606C20.4142 4.87744 19.8039 5.1861 19.3189 5.648C19.6496 5.60655 20.4961 6.29619 20.1562 6.53689C18.757 6.29706 19.2596 6.49772 17.6589 6.53778C18.1311 6.4691 18.2669 7.73094 17.6497 8.06388C17.6444 7.85077 16.9996 7.08028 17.1451 6.83497C16.8202 7.48756 16.5094 8.13507 16.2169 8.75369C16.4816 8.349 15.7541 7.86965 15.2461 7.83024C15.5277 7.91322 13.9268 8.702 13.5901 9.07057L14.3857 8.86111C14.0129 9.04626 13.7048 9.33972 13.5017 9.70303C13.357 10.0088 13.2459 10.3294 13.1702 10.6591C12.9367 11.3662 12.8898 11.9503 12.1 12.5813C11.9875 12.3141 11.7816 12.0969 11.5208 11.9703C11.2874 11.8665 11.0287 11.8338 10.7769 11.8764C10.5251 11.9189 10.2914 12.0348 10.1051 12.2095C10.24 12.795 10.4803 13.351 10.8144 13.8503C11.2136 14.4658 11.8583 14.8525 11.9139 15.1828C11.6647 15.2601 11.4109 15.3423 11.1478 15.4342C11.1562 15.5236 11.1726 15.612 11.1971 15.6983L11.1986 15.7599L11.1993 15.7883L11.2988 15.7858L11.6829 15.7999C11.4137 15.8351 11.0877 15.8717 10.7379 15.9089C10.6705 15.9186 10.6021 15.9203 10.5343 15.9139L10.3821 15.8941C10.281 15.8834 10.1808 15.8653 10.0823 15.84C9.75777 15.7723 9.45851 15.6157 9.21797 15.3877C9.49264 15.3808 9.86748 15.3999 9.60807 15.2595C9.40579 15.22 9.20652 15.1664 9.01172 15.0991C8.87318 14.8419 8.79172 14.5578 8.77289 14.2663C8.91453 14.3681 9.07882 14.4339 9.25157 14.4581C9.09936 14.365 8.96864 14.2407 8.86808 14.0933C9.07515 14.036 9.38251 14.3885 9.4269 14.0793C8.8071 13.7394 9.73128 13.5552 8.9436 13.7029C8.87801 13.3538 9.20347 13.4831 9.31393 13.1628C8.72126 12.9224 8.23773 12.4724 7.95544 11.8984C8.11577 11.9753 8.28877 12.0224 8.46596 12.0373C8.76596 11.5275 9.1885 11.37 9.41758 10.8667C9.59352 10.8907 9.88808 10.7317 10.1259 10.958C10.0423 10.8369 9.85339 10.671 9.90571 10.4896C10.5962 10.4344 9.83954 10.8751 10.6137 10.9458C10.2441 10.756 10.2708 10.3099 10.1159 9.98679C9.49984 9.79844 9.77726 10.4691 9.91282 10.7738C9.52882 10.6114 9.18523 10.3666 8.90641 10.0567C8.62759 9.74671 8.42036 9.37922 8.29942 8.98025C8.28674 8.47352 8.89767 9.02688 8.8187 8.90091C9.2024 8.3274 8.28093 7.86237 8.30957 7.49203L8.30969 7.49677C8.33135 7.41566 8.40523 7.33799 8.55985 7.26778C9.18438 7.22846 9.58456 7.69232 9.99468 7.79579C10.0432 8.22106 9.4451 8.17916 9.36579 8.41808L9.73091 8.23835C9.85392 8.42009 9.88483 8.70838 9.6825 8.76556C10.2366 8.7517 10.3468 7.47422 11.0326 7.04479C10.9049 6.86317 10.8029 6.57666 10.5472 6.58306L10.5528 6.80565C10.0792 6.8175 10.1301 6.20019 9.83529 6.34973C9.65046 5.97052 9.31611 5.48605 9.70289 5.22522L10.3187 5.4041C10.1417 5.33745 9.87066 5.49112 10.003 5.66788C9.80697 5.40743 11.0353 5.44777 10.3359 4.95822L9.7564 5.09119C9.57146 4.70725 9.07834 4.12725 9.3993 3.88702C8.75713 3.78936 9.43494 3.98564 8.66123 3.93392C9.58909 4.08603 8.28333 4.73948 9.30342 4.78977C8.41487 4.69354 8.79824 5.05358 7.99801 5.07834C8.19408 5.14925 8.41618 5.12473 8.20391 5.35277C8.25675 5.3924 8.3055 5.43721 8.34942 5.48655L8.37783 5.48584C8.40696 5.51354 8.4021 5.50892 8.37783 5.48584C8.4922 5.45448 8.61249 5.45147 8.72828 5.47707C9.11543 5.79909 8.92223 6.22094 9.08941 6.46317C8.93135 6.58559 8.89583 6.30215 8.65418 6.30347L8.90483 6.66208C8.46488 6.50249 8.01214 6.77919 7.91955 6.29815L7.75724 6.62918C7.73356 6.62978 7.70988 6.63037 7.69094 6.63084L7.76433 6.15513C7.73292 6.19184 7.69714 6.22456 7.65778 6.25258C7.61733 6.41453 7.56753 6.574 7.50861 6.73018C7.42149 6.77001 7.35352 6.84252 7.31941 6.93204C7.2853 7.02156 7.28777 7.1209 7.3263 7.20862C7.16339 7.32642 7.62585 7.81716 7.33436 7.53065L7.35047 8.17472L7.24048 8.13482C6.95872 8.61574 7.47885 9.5173 6.44267 9.77069C6.48145 9.89089 6.48635 10.0194 6.45681 10.1422C6.42728 10.265 6.36447 10.3773 6.27527 10.4667L5.87924 10.3582C5.91003 10.6417 5.21388 10.8487 5.55273 11.134C4.45284 10.9246 4.84239 12.0995 4.49053 12.4306L4.97027 12.665C4.83775 12.98 4.80351 13.3278 4.87203 13.6626L5.30299 13.8413C5.51374 14.3099 4.65941 14.4451 4.48645 14.9185C4.34165 14.8132 4.43873 14.716 4.57524 14.6794C4.01026 14.6366 3.89958 15.3265 3.91664 15.8189C3.9337 16.3113 4.00664 16.7644 3.409 17.1206C3.49945 17.3268 3.37005 17.458 3.17459 17.6003C3.1779 17.592 3.17949 17.5831 3.17927 17.5741C3.17904 17.5652 3.17701 17.5564 3.17328 17.5482L3.12794 17.6299C2.99747 17.7185 2.84806 17.8075 2.71321 17.9104C2.85249 17.8436 2.98534 17.7641 3.11006 17.673C3.03318 17.8577 3.00557 18.0593 3.02993 18.2579L2.39877 18.4111C2.39707 18.4284 2.39751 18.4459 2.40007 18.4632C2.07012 18.7226 2.5933 18.61 3.09623 18.4458C3.13914 18.5471 3.21915 18.6281 3.31988 18.6724C2.79303 18.8277 2.80121 18.9649 2.80914 19.0927C2.81708 19.2204 2.81566 19.3531 2.20132 19.6102C2.62825 19.6279 2.14688 20.4645 3.0005 20.301C2.76052 20.5582 2.5164 20.8391 2.77307 20.8706L1.83777 21.3679C2.17696 21.3535 2.51482 21.3166 2.84909 21.2573C2.14703 21.7961 1.72911 22.1383 1.15229 22.1906C1.52902 22.2854 1.5733 22.3507 1.63203 22.425C1.69076 22.4994 1.72071 22.5602 2.1783 22.4777L1.50003 22.8311C1.41053 23.0419 2.15747 22.7815 1.53911 23.2566C1.31584 23.4449 1.1101 23.6531 0.924424 23.8786C1.03761 24.0463 1.7134 23.9725 2.34776 23.9472C2.98212 23.9218 3.62642 23.9152 3.93709 24.2107C4.42332 23.5683 4.44144 23.7242 4.47826 23.8702C4.51509 24.0162 4.59643 24.2369 5.04809 23.728C4.86613 24.0311 4.94628 24.2044 4.47437 24.4721C4.77643 24.3542 5.10861 24.3376 5.42093 24.4247C5.65393 24.4568 5.92292 24.4122 6.42881 23.9872C6.34618 24.2831 5.99941 24.4387 5.97064 24.6147C6.08252 24.5409 6.38537 24.3342 6.36596 24.5053C6.34654 24.6764 6.10715 24.7677 5.9021 24.9055C6.84688 24.7871 7.32624 23.87 7.75007 23.0064C7.90659 23.3911 8.15107 23.3139 8.55857 22.7445C8.56533 23.0145 8.71439 23.2903 8.23904 23.4207C8.44813 23.4439 9.73449 23.7197 9.80302 23.0498C9.86874 23.214 10.1402 23.0793 10.1998 22.9972C10.3276 22.994 10.4318 22.9914 10.5171 22.9893C10.6023 22.9872 10.6354 22.9863 10.6923 22.9849C10.8292 22.991 10.9662 22.9764 11.0987 22.9416L10.9825 22.8402C11.0902 22.032 11.295 22.6429 11.6001 22.5262L11.6022 22.6115C12.3549 23.1471 11.8981 22.315 12.6434 22.9361L12.5795 22.4638C12.5857 21.388 13.2388 23.0586 13.6308 22.6271L13.522 22.445L13.6668 22.5503L13.7378 22.5486C13.9665 22.9741 14.2438 23.8296 14.4022 23.9109C14.4519 24.0044 14.3302 24.0643 14.2657 24.137C14.8873 24.7375 14.3109 23.482 14.7426 23.31C14.8364 23.6536 14.6797 24.2072 14.9794 24.2519C15.138 24.5322 15.7791 23.0709 16.213 23.7471C16.1164 23.4842 16.0246 23.2258 16.1948 23.0178C16.2514 23.0115 16.3084 23.0101 16.3653 23.0135C16.6579 23.1579 17.051 23.7167 17.2768 23.2703C17.3194 23.2837 17.3609 23.3001 17.4012 23.3193C17.3621 23.3529 17.3325 23.3963 17.3154 23.4449C17.2983 23.4936 17.2943 23.5459 17.3039 23.5966C17.3723 23.5207 17.4088 23.4214 17.406 23.3192C17.6451 23.4188 17.8911 23.5013 18.1419 23.5662L18.0543 23.0945C18.269 23.1555 18.3156 23.3107 18.4181 23.4313C18.4881 23.1974 18.4573 23.1034 18.409 23.0667C18.4058 23.0479 18.4053 23.0287 18.4076 23.0098C18.4732 23.0355 18.5422 23.0513 18.6125 23.0568C18.6532 23.0653 18.6954 23.0642 18.7356 23.0537C19.1532 23.0765 19.607 23.0319 19.7319 23.6685C20.0066 23.6617 19.7219 23.266 19.8514 23.1395L19.9556 23.1369L20.0381 23.405C20.0406 23.5044 20.1051 23.6213 19.9823 23.6386L20.4566 23.6551L20.4583 23.7214C20.4055 23.6943 20.3134 23.8009 20.2571 23.826C20.5408 24.179 21.0307 23.6834 21.1285 23.8042L20.8111 23.6178C21.0191 23.5515 21.2346 23.5111 21.4525 23.4975C21.8554 23.6472 22.2182 23.8879 22.5127 24.2008C22.5075 23.9924 22.2356 23.7338 23.1198 24.0339C23.1923 23.9768 23.2725 23.9302 23.358 23.8953L23.4157 23.927L23.3721 23.8902C23.4194 23.889 23.4242 23.8889 23.3721 23.8902C23.2065 23.7903 23.0704 23.6482 22.9779 23.4783C23.4952 23.1289 24.7672 23.4004 25.3915 23.3516L25.43 23.3743L25.4307 23.4027L25.4585 23.3783C25.5399 23.4255 25.6249 23.4661 25.7127 23.4999C25.6387 23.5728 25.3508 23.618 25.5119 23.8082L26.3321 23.6313C26.2918 24.1062 27.5637 24.752 26.2305 24.6859L27.3568 25.0036C27.9632 25.4603 28.6896 25.7303 29.4471 25.7806C29.9272 26.0292 30.928 25.6914 30.3645 25.895L31.7915 26.1105L32.2742 24.5678C30.5899 24.2972 30.2762 25.3949 28.5627 24.3384C28.4656 24.2597 28.3916 24.1562 28.3486 24.0388C28.3056 23.9214 28.2952 23.7945 28.3186 23.6716C28.7922 23.6598 29.4433 23.7383 29.9169 23.7264C29.9068 23.3239 29.3014 23.1779 28.6508 23.1231C28.6856 23.0808 28.7117 23.032 28.7275 22.9796C28.7433 22.9271 28.7484 22.872 28.7427 22.8175C28.7995 22.8161 28.8468 22.8149 28.9045 22.8467C28.9476 22.9172 29.0084 22.9752 29.0809 23.015C29.1534 23.0547 29.235 23.0748 29.3177 23.0733C29.2609 23.0747 29.258 23.1506 29.1964 23.1474C29.3477 23.3237 29.4891 23.1069 29.668 23.0597C29.7543 23.1002 29.8358 23.1361 29.9128 23.1816L29.9133 23.2052C29.9613 23.2277 30.0046 23.2551 30.0431 23.2778L30.0438 23.3062C30.0491 23.3226 30.058 23.3375 30.0699 23.35C30.0818 23.3624 30.0963 23.3719 30.1125 23.3779C30.1286 23.3839 30.1458 23.3861 30.1629 23.3845C30.18 23.3828 30.1966 23.3773 30.2112 23.3684L30.5194 23.5644C30.7328 23.7117 30.9673 23.8257 31.215 23.9024L30.5411 23.4833L30.58 23.3355C31.0555 23.3165 31.5261 23.4365 31.9345 23.6807C31.692 23.4579 31.4052 23.2891 31.0928 23.1852C31.1354 23.1841 31.1733 23.1832 31.2159 23.1821L31.2151 23.149L31.2624 23.1478L31.2326 21.9544C31.7515 22.0504 31.9158 22.179 31.9331 22.3017L31.4137 22.3763C31.665 22.5691 31.649 22.6879 31.7538 22.8986L31.8606 22.621C32.1697 22.7355 32.4892 22.8195 32.8146 22.872L33.2971 21.3246L32.8643 21.2596L32.8614 21.1459C32.321 20.9772 31.768 20.8516 31.2077 20.7703L31.1603 18.876C31.1423 18.8813 31.1261 18.8915 31.1136 18.9056L31.1103 18.773L30.9304 18.7775L30.9272 18.6496L30.8355 18.7752C30.7897 18.774 30.7439 18.7751 30.6982 18.7786L30.7013 18.9017C30.6873 18.9181 30.6702 18.9315 30.6508 18.9409C30.6315 18.9504 30.6104 18.9557 30.5889 18.9567L30.8004 18.3164C30.4729 18.8648 30.1586 17.8586 29.8482 18.1412C30.4686 18.1257 30.0741 18.6473 30.2348 19.0082C30.2015 19.0649 30.1729 19.1243 30.1492 19.1856C30.1046 19.2194 30.0492 19.2358 29.9934 19.232C29.9376 19.2282 29.885 19.2043 29.8454 19.1648C29.8384 18.8854 30.2193 18.5773 30.0911 18.5663L29.851 18.6292L29.9053 18.7179C29.8487 18.8206 29.7975 18.9263 29.7521 19.0345C29.5532 18.6603 29.4865 17.8896 28.884 18.0516C29.0101 17.9773 29.3652 18.3428 29.1624 18.5706C28.9357 18.4478 28.7536 18.2567 28.6417 18.0245C28.0709 18.1288 28.6535 18.498 28.5231 18.7762L28.4615 18.7777L28.4631 18.844C28.2491 18.2428 28.166 19.0884 27.9008 19.2846L27.8882 18.7826C27.5384 18.6255 27.4975 18.8871 27.4613 19.1439C27.3783 19.1276 27.294 19.1187 27.2095 19.117L27.3425 18.7536L27.0202 18.937L27.077 18.3669C26.7275 18.7927 26.6111 18.6866 26.266 18.5294C26.3189 18.7614 26.2968 19.0042 26.2028 19.2228C26.0886 19.2035 25.9695 19.1781 25.8455 19.1464C25.8432 19.0565 25.8423 19.0186 25.6017 19.0625C25.6933 18.7475 25.7971 18.3515 25.9933 18.8063C26.013 18.6447 26.085 18.4912 26.1046 18.3296C25.8735 17.9942 25.5343 18.2633 25.3734 18.2721C25.4087 18.278 25.4423 18.2911 25.4722 18.3108C25.5021 18.3304 25.5275 18.3561 25.5468 18.3862L25.0858 18.9001L24.8799 18.8152C24.9008 18.7415 24.9309 18.6707 24.9694 18.6045C24.908 18.6405 24.8544 18.6886 24.8119 18.7458L24.7402 18.3448C24.704 18.3476 24.6676 18.3485 24.6313 18.3475C24.6503 18.1867 24.7296 18.0391 24.8532 17.9345L24.3881 18.2873C24.3118 18.2655 24.2352 18.2343 24.1587 18.2077C24.0647 18.049 23.9512 17.8717 24.0007 17.7662C23.8609 17.6702 23.7024 17.7737 23.5313 17.9439C22.9275 17.6746 22.3427 17.4097 22.1007 17.5863C21.5946 16.2959 18.4234 16.2567 17.1239 15.6448L16.9179 16.1238C16.6884 16.0443 16.4404 15.9794 16.221 15.9233C16.1114 15.8976 15.954 15.8589 15.8827 15.8512L15.7786 15.8538C15.5607 15.8592 15.3334 15.8649 15.0738 15.9046L14.7424 16.2967C14.5778 16.3255 14.4087 16.3136 14.2497 16.2623C14.0907 16.211 13.9466 16.1216 13.8299 16.0021C13.6166 15.8084 13.5453 15.6111 13.1693 15.5447C13.537 15.4692 13.6002 15.5339 13.5506 15.6347C13.7728 15.4254 13.785 15.3445 13.5943 15.2972C13.6626 15.1865 13.5891 15.0888 13.548 14.9619C13.5114 14.8926 13.4937 14.8149 13.4967 14.7366C13.4998 14.6583 13.5234 14.5822 13.5653 14.516C13.648 14.4073 13.752 14.3165 13.8708 14.2492C13.9897 14.1819 14.121 14.1394 14.2568 14.1243C14.2049 13.9456 14.4017 13.8553 14.6143 13.8311C14.6102 13.8374 14.6081 13.8449 14.6083 13.8525C14.6085 13.8601 14.611 13.8675 14.6154 13.8737C14.6386 13.8594 14.6604 13.843 14.6805 13.8247C14.8226 13.8211 14.9647 13.8175 15.0878 13.8145C14.9619 13.7951 14.8336 13.7983 14.7089 13.8239C14.8401 13.6801 14.9494 13.5177 15.0333 13.342C15.1718 13.443 15.3043 13.552 15.4301 13.6685C15.4301 13.6685 15.4301 13.6685 15.4291 13.6306C15.872 13.5295 15.5801 13.224 15.1406 13.0834C15.2789 12.889 15.3915 12.6775 15.4755 12.4542C16.244 12.8662 16.399 11.4834 17.2911 11.9112C17.3447 11.7248 17.4507 11.5577 17.5965 11.4297C17.7721 11.25 18.0039 11.0452 18.2259 10.8264C18.6003 10.5343 18.8696 10.1284 18.993 9.66986C19.5264 9.56065 20.009 9.27879 20.3662 8.86783L20.8516 9.32956C21.0729 8.89279 21.3041 8.47474 21.549 8.03738C22.3837 8.06388 22.7364 8.14509 22.3004 8.89998C22.6382 8.47273 23.0396 8.0999 23.4906 7.7945C23.888 7.51017 24.2447 7.17281 24.5506 6.79179L24.6367 7.20192C25.1056 7.00063 25.7391 6.18393 26.1565 6.39147C26.666 6.44864 27.1817 6.40515 27.6745 6.26345C28.3054 6.10076 29.0871 5.90586 29.9017 5.69593C30.7162 5.486 31.6216 5.30696 32.4945 5.15717C33.3292 5.03144 34.1749 4.99439 35.0175 5.04665C34.255 3.92844 36.4856 5.38901 36.4808 4.44138C36.6912 4.70622 37.1255 4.82804 36.6684 5.11906C37.2764 4.97344 37.9033 4.92258 38.5269 4.9683C38.7918 4.99749 39.0599 4.97317 39.3152 4.89678C39.5705 4.82038 39.8079 4.69347 40.0132 4.52357C40.2049 4.79836 39.7066 4.95773 39.8717 5.11946C39.9885 5.05019 40.3388 4.84713 40.5134 5.00863C40.6881 5.17011 40.297 5.26046 40.0493 5.39934C41.5959 5.28008 41.7495 4.40904 41.8569 3.59129C42.6766 3.96409 43.0737 3.92573 43.6764 3.39413C43.9583 3.67613 44.4158 3.96796 43.4225 4.04021C43.703 4.07584 44.5534 4.16354 45.3231 4.24379C46.0927 4.32405 46.8448 4.26732 46.8983 3.94375C47.0593 4.12926 47.6786 4.07112 47.8477 4.01002C49.1026 4.16343 49.1996 4.25578 50.439 4.35745L50.1129 4.20449C50.2043 4.06309 50.3415 3.95738 50.5015 3.90506C50.6615 3.85275 50.8346 3.857 50.9919 3.91713C51.3682 4.07855 51.7647 4.18819 52.1705 4.24304L52.1298 4.31988C53.2173 4.79023 53.4684 4.78868 53.7192 4.77766C53.9701 4.76665 54.2212 4.7651 55.2587 5.322L55.2459 4.81054C55.6951 3.82312 57.0731 5.86894 58.4324 5.83966L58.048 5.43701C58.444 5.35602 58.8398 5.83421 59.2042 6.38426C59.5687 6.9343 59.8969 7.55161 60.2186 7.7189C60.3404 7.85327 59.9408 7.79218 59.7134 7.79314C61.3012 8.94282 60.1399 7.22804 61.512 7.52067C61.6456 7.93433 60.9241 8.26515 61.786 8.62267C61.9571 8.83164 62.6901 8.77065 63.5018 8.82615C63.914 8.84248 64.3235 8.9005 64.724 8.99933C65.0934 9.09045 65.4279 9.28804 65.6859 9.5676C65.5254 9.21147 65.3601 8.85547 66.0437 8.9047C66.6146 9.16908 67.14 9.52218 67.6005 9.95092C68.1463 10.3637 68.7133 10.6765 69.2962 10.4866C69.3798 10.6077 69.3961 10.6926 69.3739 10.7548C69.7641 10.8161 70.37 10.981 70.9473 11.1371C71.4035 11.3008 71.8918 11.3551 72.3729 11.2958C72.3066 12.2452 73.4611 12.5527 74.5268 12.9099C75.5924 13.2671 76.6129 13.5211 76.199 14.2138L78.314 15.2224L78.1745 15.3301C78.6158 15.6649 79.111 15.9217 79.6389 16.0896C79.9805 16.1724 80.3331 16.2004 80.6835 16.1724C80.918 16.4556 80.619 16.4394 80.5492 16.4886C80.9661 16.862 81.2905 17.1382 81.571 17.3634C81.8053 17.567 82.0607 17.7449 82.333 17.894C82.9775 18.1885 83.6584 18.3962 84.3576 18.5115L84.205 19.0413C84.7806 19.1264 86.2214 21.5971 88.2074 22.5663C88.1563 22.5923 88.1 22.6066 88.0426 22.6081C87.9853 22.6095 87.9283 22.598 87.8759 22.5746C89.0125 23.1148 89.8171 24.3978 90.5903 25.3783C91.3636 26.3588 92.0569 27.1755 93.034 26.8335C93.5146 27.1011 93.9956 27.3876 94.477 27.6883C93.1847 26.0384 95.284 27.3648 94.9214 26.5115C95.5654 27.0592 95.9422 28.4809 95.1905 27.7937L95.1528 27.6145C94.1814 27.9942 96.6282 29.7622 96.07 30.1789C98.7533 33.2583 100.605 36.8134 102.478 40.0789L102.905 39.3242C103.132 39.7024 103.327 40.105 103.531 40.498C103.541 40.891 103.236 41.1972 102.807 40.3597C102.672 41.0028 103.885 41.5648 104.045 41.5134C104.667 43.2796 102.916 41.3 103.175 41.81L103.594 42.4535L103.589 42.2593C104.168 42.6524 104.488 42.5543 104.95 43.5948C105.124 44.306 104.688 44.1321 104.785 44.395C104.733 44.3963 104.755 44.5142 104.956 44.7935L105.288 45.5529C105.394 45.8061 105.485 46.0645 105.587 46.3226L105.873 45.4672C106.432 46.0266 106.459 46.9262 106.776 45.9421C106.51 46.6833 107.082 48.1285 107.558 49.5524C107.803 50.2618 108.1 50.9605 108.271 51.5107C108.417 51.8928 108.505 52.2947 108.533 52.703C108.876 53.1248 109.152 53.5975 109.35 54.1042C109.53 54.6623 109.672 55.2318 109.776 55.8089C109.824 55.4713 110.432 55.1196 110.62 56.219C109.89 56.1852 109.874 56.7116 109.919 57.3738C109.964 58.0361 110.051 58.8632 109.643 59.3853C109.892 58.9383 110.082 59.687 110.293 60.3831C110.505 61.0791 110.668 61.7242 111.049 61.0371C111.073 61.9842 110.541 61.173 110.312 61.9037C110.522 62.4371 110.659 62.9963 110.719 63.5663C110.762 64.1528 110.749 64.7692 110.765 65.3991C110.773 66.6594 110.592 67.9765 110.739 69.2997C110.925 69.3424 111.203 68.8853 111.478 69.4565C111.186 69.9377 110.857 70.4198 110.565 70.8678C110.64 71.3872 111.606 71.3772 110.952 72.3177C111.11 72.1905 111.347 71.995 111.398 72.3539C111.287 73.0059 111.128 73.6591 111.045 74.3151C110.962 74.9711 110.912 75.6358 110.815 76.2922C110.63 77.6094 110.569 78.9567 110.327 80.2802C110.039 82.9744 109.09 85.5557 107.563 87.7939C108.108 87.2305 108.034 87.7015 107.834 88.2136C108.039 87.9099 108.255 88.3736 108.511 88.3909L107.074 90.2229C107.131 90.3147 107.169 90.4178 107.184 90.5252C107.199 90.6327 107.191 90.7421 107.16 90.8462C107.086 91.1121 106.989 91.3712 106.872 91.6211C106.638 92.1435 106.424 92.6464 106.662 92.8916L106.848 92.1998C107.153 93.3958 108.977 91.6727 109.838 92.1913C109.651 91.5137 110.201 90.9597 110.738 90.2733C111.021 89.9547 111.258 89.5978 111.441 89.2132C111.612 88.7564 111.625 88.2554 111.477 87.7907C111.791 87.4701 111.677 88.2169 111.958 88.0819C111.692 87.5057 111.773 86.954 112.266 86.0176L112.336 86.158C112.596 84.9859 112.939 83.8339 113.364 82.711L113.9 81.0532C114.137 80.3688 114.338 79.6726 114.502 78.9673L113.985 79.1366C114.074 78.7312 114.242 78.3471 114.478 78.0059C113.844 77.1072 114.176 79.9706 113.463 79.1165C114.017 78.733 114.186 77.4967 114.341 76.3034C114.495 75.1101 114.58 73.9281 115.17 73.6622C115.252 72.5702 114.585 73.9469 114.676 72.8642L114.992 72.5909L114.6 72.2974C114.678 71.5942 115.071 71.2384 115.332 71.2177C115.334 71.4484 115.362 71.6781 115.415 71.9027C115.799 70.9738 115.349 69.2696 115.427 68.9549C115.374 69.3069 115.335 69.6538 115.254 70.0065C115.193 69.2593 115.116 68.4746 115.082 67.6746L115.051 66.4575C115.041 66.0455 114.979 65.6395 114.945 65.2281C114.863 64.4151 114.79 63.6019 114.643 62.8237C114.493 62.0737 114.288 61.336 114.029 60.6166L113.831 60.8679C113.579 60.2496 113.45 59.5881 113.451 58.9203C113.474 58.2001 113.372 57.4812 113.151 56.7954L113.224 56.8694C112.868 56.3773 112.621 55.8147 112.5 55.2195C112.911 55.7447 112.74 53.9909 113.221 54.6849C112.219 52.5018 112.588 53.6298 111.325 52.363L111.588 51.911C111.041 51.5782 110.641 51.0493 110.471 50.432C111.069 51.2511 110.799 49.5235 111.536 50.4054C111.519 49.4007 111.188 48.4265 110.59 47.619C110.189 46.9514 109.831 46.4675 110.177 45.6959C108.739 45.0495 110.474 47.9157 110.002 47.411C109.929 47.7303 109.67 47.5757 109.391 47.2557C109.082 46.9178 108.848 46.5183 108.703 46.0835C108.406 45.3659 109.473 44.2824 108.547 42.4765C108.627 42.6593 108.707 42.6383 108.792 42.821C108.701 42.0224 107.815 41.6513 107.79 40.6236C106.971 40.4688 107.242 39.5522 106.452 39.8136C106.796 40.3215 107.164 40.8193 107.49 41.3419C106.815 40.5058 105.503 40.1311 105.081 38.4215C105.427 38.559 105.74 38.7675 106.001 39.0335C105.987 38.4699 105.399 38.2667 105.338 37.7043C106.15 37.3997 106.597 39.5683 107.69 40.2423C107.731 39.5968 106.139 38.6604 107.178 38.7245C106.48 38.6472 106.293 38.1874 106.052 37.6675C105.849 37.0422 105.416 36.5176 104.84 36.2004L105.31 36.018C104.997 35.8213 104.724 35.5677 104.504 35.2705L105.421 35.5414C105.182 35.3899 104.986 35.1794 104.851 34.9301C104.721 34.6896 104.614 34.4367 104.534 34.1751C104.418 33.6482 104.16 33.1631 103.788 32.7722C105.067 34.6357 103.579 33.5214 103.831 34.5007C101.79 32.6563 103.927 32.4465 102.085 30.2416C102.365 30.6469 102.59 31.4848 102.108 31.1462C101.808 30.6143 101.604 30.034 101.506 29.4316C100.136 27.9021 101.316 29.9861 100.526 29.4988C100.551 28.5883 99.6957 28.8798 98.99 28.3241L99.3656 27.9972C98.753 26.9984 98.4516 27.0723 98.1735 27.1314C97.8954 27.1905 97.6564 27.296 97.1081 26.4046L98.2121 26.5902L97.3515 25.9057L97.9241 25.6876C96.8099 25.0947 96.6636 24.7382 95.9578 23.8034C95.8929 24.241 95.1986 24.3295 94.4747 23.6178C94.1964 22.914 95.0845 23.5599 94.0128 22.5821C94.4864 22.5702 94.9931 22.5576 95.1122 23.3412C95.2764 23.2755 95.5627 23.3536 95.7269 23.2879C95.4326 22.5087 94.4498 21.8651 94.0479 21.5245C94.1881 21.6578 94.3028 21.8155 94.3865 21.9899L92.3683 21.0595C92.2549 20.6974 92.5456 20.7612 92.8364 20.8298C92.4177 20.6326 92.013 20.4068 91.6253 20.154C92.0139 19.9642 92.2659 19.6215 93.0453 20.09L92.151 19.5722L91.2336 19.0834C91.2281 18.8608 90.762 18.0384 91.0573 18.0974C90.5852 17.6122 90.0065 17.2437 89.3671 17.0213C88.6394 16.7634 87.9804 16.3422 87.4408 15.7901C87.2421 15.7926 87.0473 15.7347 86.8822 15.624C86.3542 15.1634 85.9106 14.6721 85.3826 14.2115C84.8305 13.6892 84.1564 13.3135 83.4218 13.1185L83.0477 11.9906C81.877 11.4133 83.5914 13.4555 81.6388 12.4997C80.2487 11.8663 81.4996 11.6692 81.1563 11.2086C80.3014 11.1305 78.8215 11.0728 77.9052 9.86837C78.3113 10.0148 78.6958 10.2156 79.0479 10.4653C78.813 10.1679 78.5589 9.86149 78.3338 9.57333C79.7855 9.64125 80.4714 10.3491 79.8962 9.33046C79.0754 10.4267 76.1705 7.39552 75.3753 8.56693L74.887 7.99154C75.0601 8.09147 75.1297 8.03286 75.2981 8.1329C74.3863 6.91891 73.9304 8.58413 72.4422 7.62624C71.9591 7.25923 71.6422 6.90228 72.0882 6.92429L70.7123 6.66966C70.4289 6.51563 70.5011 6.37166 70.7061 6.4234C70.1174 6.18698 69.5198 5.97921 68.9314 5.757L68.9638 5.72776C68.4793 5.81149 67.99 5.86489 67.4988 5.88763C67.0912 5.50451 67.8011 5.8469 67.7437 5.63509L66.5563 5.52737C66.2544 5.01367 67.2643 5.03578 67.9742 5.37816C67.4911 3.6843 66.973 5.32739 65.0905 3.76334L66.1809 3.97298C65.7914 2.9876 64.8945 2.93896 63.8637 2.07862C63.9628 2.25147 64.4584 2.74137 64.7493 3.19375C65.0402 3.64613 65.1401 4.04168 64.4991 3.99138C64.0769 3.69297 63.5573 3.56545 63.0449 3.63446C63.1988 3.15674 62.5563 3.04487 61.7361 2.84267L61.9861 2.22512C61.0696 2.14855 61.0449 2.49035 60.4512 2.62368C60.1469 2.5405 59.8758 2.365 59.6754 2.12134C59.4749 1.8777 59.3549 1.5779 59.332 1.26323C57.8073 0.742216 60.1884 2.34593 58.3263 1.97552C57.099 1.40915 56.1188 1.43842 54.4907 1.52181C53.6275 1.11219 54.728 1.15573 54.4373 0.902371L53.5317 1.26148C53.3364 1.21898 53.4274 1.06981 53.4729 0.992848C52.7547 1.07716 53.2995 1.63692 52.2047 1.63114C52 1.97271 51.5073 1.60121 50.8592 1.26676C50.2111 0.932316 49.4198 0.554061 48.7085 0.913048C48.3997 0.693317 48.912 0.524114 48.839 0.260575C46.9524 0.615805 47.2147 0.490767 45.6622 1.13144C45.2457 0.961789 44.8243 0.787522 44.3988 0.637056C45.3264 1.1588 44.0893 1.71576 43.0584 2.17752C43.3228 2.3812 43.598 2.57047 43.8829 2.74449C43.336 2.85769 42.7933 2.94709 42.2565 3.08373C42.0595 2.97493 42.2196 2.74346 42.4875 2.46666C42.3847 2.5155 42.2848 2.57022 42.1883 2.63052C41.6041 2.38925 41.8977 2.0028 42.3243 1.62724C42.5265 1.75487 42.7289 1.88722 42.9174 2.03415C43.3292 1.64 43.7259 1.20359 43.6497 0.812184C43.4778 0.904252 43.289 0.96056 43.0947 0.977709C43.2057 0.87068 43.2744 0.77419 43.2254 0.709074C43.1764 0.643957 42.9901 0.776565 42.7148 0.944571L42.3315 0.210177L42.2394 0.506283C41.4967 0.368493 40.7483 0.192931 39.997 0.0885255C39.2068 0.515828 38.4937 0.988599 37.6912 1.49203ZM7.90417 7.00935C7.66573 7.13852 7.76435 7.10288 7.90417 7.00935V7.00935ZM28.2554 24.9337L28.2933 24.9328C28.8848 25.2781 28.6825 25.1458 28.2743 24.9333L28.2554 24.9337ZM7.66044 18.0993L7.4542 18.1898C7.63498 18.0289 7.17549 18.0357 6.72879 17.9852C6.53374 17.9721 6.3414 17.9323 6.15718 17.8669C6.67033 17.9001 7.17963 17.9778 7.67938 18.0989L7.66044 18.0993ZM6.15718 17.8669C6.00883 17.809 5.93566 17.7255 5.99426 17.6056C6.02268 17.6049 6.05583 17.604 6.08424 17.6033C6.66335 17.689 7.25291 17.6743 7.827 17.5597C7.24714 17.4856 6.67854 17.3407 6.13396 17.1282C5.80852 16.9975 5.5075 16.8128 5.24362 16.5818L5.65775 15.8986C5.72582 15.9679 5.79852 16.0325 5.87607 16.1016L5.88022 16.2674L5.93373 16.1333C6.13377 16.3164 6.34373 16.4883 6.56265 16.6483C7.02592 16.9824 7.53342 17.2504 8.07054 17.4446C8.40062 17.3795 8.50244 17.4717 8.54175 17.338C8.61058 17.3445 8.67893 17.3554 8.74633 17.3708C8.41188 17.5266 8.05425 17.6268 7.68754 17.6674C7.04963 17.7403 6.34981 17.8004 6.17612 17.8664L6.15718 17.8669ZM6.73414 14.2225C6.81114 14.0847 6.89811 13.9526 6.99436 13.8275L7.40757 14.054L7.0795 14.3892L6.73414 14.2225ZM7.45374 14.0055L7.0081 13.8082L7.22392 13.5326C7.27421 13.5266 7.32495 13.5253 7.37547 13.5289C7.5361 13.5505 7.69062 13.6047 7.82963 13.6881C7.7014 13.7828 7.58193 13.8889 7.47268 14.005L7.45374 14.0055ZM6.06414 13.7702C6.43393 13.6596 6.8124 13.5803 7.19551 13.5334L6.93623 13.7768L6.70619 13.6736L6.92238 13.7913L6.55655 14.1322C6.38271 14.0453 6.21413 13.9483 6.05171 13.8416L6.06414 13.7702ZM8.70572 17.2629C8.43972 17.2002 8.18153 17.1081 7.93591 16.9883C8.16505 17.038 8.39126 17.1004 8.61349 17.1751L8.70572 17.2629ZM5.21435 15.4121L5.15882 15.4656L5.13182 15.3336C5.1703 15.3563 5.19955 15.3888 5.22855 15.4117L5.21435 15.4121ZM2.99079 20.2918C3.05709 20.2901 3.13215 20.2598 3.2168 20.234C3.09509 20.2939 2.97386 20.3727 3.005 20.2914L2.99079 20.2918ZM5.35298 20.0052C5.98013 19.668 6.62989 19.3746 7.29759 19.1273C7.4882 18.9803 7.69325 18.8425 7.3724 18.8979C6.82568 19.2055 6.26136 19.4807 5.68235 19.7221L6.66749 19.1335C6.82152 19.0396 6.9611 18.9366 7.49861 18.6389C7.24643 18.7873 5.65878 19.3483 5.79611 19.1553C6.02201 19.0928 7.36494 18.5996 7.51127 18.5769C7.05808 18.6796 6.59642 18.7403 6.1321 18.7584C6.71661 18.6359 7.28941 18.463 7.84407 18.2416C7.65606 18.3032 7.74853 18.2109 7.84111 18.1232C8.49891 18.2774 9.08165 18.4618 9.07952 18.5661C8.60488 18.5354 8.09685 18.496 7.57911 18.4473C8.10372 18.7706 8.95344 18.8299 9.74633 18.8906C10.3886 18.878 11.0241 19.025 11.5957 19.3182C11.5067 19.5526 11.6105 19.9102 11.3589 20.0824C11.335 20.4526 11.1531 20.1918 10.9291 19.9509C10.7051 19.7101 10.42 19.4898 10.3024 19.905C10.28 19.6848 10.2744 19.4631 10.2859 19.242C10.2175 19.4173 10.1363 19.5872 10.0427 19.7504C9.97012 19.8802 9.91696 20.0284 9.69913 20.413C9.63982 20.2741 9.59033 20.1312 9.551 19.9854C9.53298 20.2957 9.45208 20.599 9.31322 20.877C9.17436 21.155 8.98044 21.4018 8.74324 21.6026L8.74004 21.4747L8.65314 21.6001C8.57737 21.602 8.49627 21.5803 8.41541 21.5682C8.51083 21.4046 8.62981 21.2358 8.74453 21.086C8.74773 21.2139 8.75128 21.356 8.75472 21.4933C9.01972 21.0983 9.22601 20.667 9.36714 20.2128C9.32587 20.2883 9.26743 20.353 9.19654 20.4018C9.2525 20.3145 9.29485 20.2192 9.32215 20.1191C9.32049 20.0528 9.25313 20.2014 9.12965 20.3798C9.20399 20.1315 9.28769 19.8783 9.37139 19.625L9.23205 19.9271C9.17669 19.7757 9.14553 19.6166 9.13969 19.4555C8.54129 20.204 7.83601 20.8603 7.04653 21.4034C6.93761 21.4061 6.83342 21.4087 6.72828 21.3734C7.10287 21.0039 7.34107 20.6757 7.82589 20.166C7.55063 20.5283 7.73331 20.4432 7.96157 20.2858C8.18983 20.1285 8.46367 19.8989 8.51742 19.9639C8.45893 19.899 8.73514 19.5746 8.83648 19.4584C8.55161 19.703 8.2536 19.9319 7.94381 20.1441C8.45573 19.5816 8.24144 19.7291 8.4015 19.4977C7.41045 20.6076 7.37812 20.2625 6.80427 20.6228C6.99903 20.4521 7.1984 20.2765 7.37019 20.1348L7.46964 20.1323L7.42133 20.0956C7.60283 19.9631 7.743 19.8838 7.78196 19.9254C8.09486 19.5527 7.81143 19.7778 7.40689 20.0865C7.2533 19.9721 7.10625 19.8492 6.96645 19.7184L6.735 19.9374C6.59766 19.9409 6.48317 19.9106 6.37875 19.9037L7.15422 19.4578C6.85492 19.6169 6.56474 19.7616 6.27918 19.9015C6.17123 19.9011 6.06354 19.9118 5.95774 19.9332C6.56166 19.6385 7.17458 19.3246 7.80585 18.9866C6.98231 19.4052 7.12106 19.2691 7.33523 19.1168C6.84438 19.385 6.34926 19.6722 5.84929 19.9549C5.79787 19.9557 5.74757 19.97 5.70343 19.9964C5.64075 20.0346 5.57283 20.0635 5.50181 20.082L5.5037 20.1578L5.36814 20.2323L5.4992 20.1674C5.49991 20.1958 5.50051 20.2195 5.52904 20.2235L5.61428 20.2214C5.06127 20.4674 4.51725 20.6943 3.99111 20.878C3.99028 20.8449 3.99017 20.8401 3.93429 20.8794C3.62883 20.9819 3.32799 21.0794 3.03154 21.1627C3.50085 20.9803 4.48718 20.4391 5.35772 20.0051L5.35298 20.0052ZM15.0638 19.1035C15.1511 18.9971 15.3228 18.6611 15.4012 18.9529C15.3737 19.181 15.3382 19.2767 15.3008 19.2966C15.2506 19.2696 15.2023 19.2391 15.1564 19.2054C15.1297 19.1692 15.1004 19.1351 15.0685 19.1034L15.0638 19.1035ZM11.6808 19.5009C11.6429 19.5019 11.6318 19.4358 11.6302 19.3742L11.7028 19.434L11.6808 19.5009ZM8.56385 20.683C8.70166 20.509 8.72261 20.589 8.72735 20.7785C8.64791 20.8231 8.57652 20.8107 8.56859 20.6829L8.56385 20.683ZM6.7903 20.4431C6.24463 20.7932 6.25279 20.5513 6.78449 20.211L6.84132 20.2096L7.3149 20.1978L7.23569 20.2519C6.77065 20.6047 6.23031 20.9784 6.54842 20.6245C6.58063 20.5858 6.53931 20.6389 6.79503 20.443L6.7903 20.4431ZM6.25385 20.2148L6.45749 20.2097C6.40539 20.211 6.35389 20.236 6.2928 20.2565C6.28569 20.2396 6.2738 20.225 6.25858 20.2147L6.25385 20.2148ZM5.97444 20.2218C5.69625 20.3101 5.42899 20.4297 5.17777 20.5782C5.24313 20.5387 5.4908 20.3998 5.78501 20.2266L5.97444 20.2218ZM6.33854 21.7054L6.50902 21.7012C6.41064 21.7463 6.31237 21.7961 6.20902 21.8319L6.33854 21.7054ZM8.36911 21.612C8.45436 21.6098 8.5396 21.6077 8.62485 21.6056L8.40559 21.9333L8.71056 21.6224C8.70984 21.8053 8.73031 21.9876 8.77155 22.1658C8.71093 22.2052 8.63611 22.245 8.57064 22.2798C8.50517 22.3146 8.2872 22.3153 8.13613 22.3381C8.19971 22.2275 8.29572 22.0877 8.40085 21.9334L8.23451 22.1034C8.21856 21.9309 8.26842 21.7586 8.37409 21.6213L8.36911 21.612ZM8.06131 22.5674C8.06111 22.4995 8.08087 22.4331 8.11814 22.3764C8.26021 22.3729 8.40595 22.3266 8.54731 22.2946C8.39376 22.4075 8.23973 22.5013 8.06664 22.591L8.06131 22.5674ZM18.0198 22.8537L18.0755 22.8049C18.1487 22.8603 18.2155 22.9238 18.2745 22.9942C18.1657 23.0017 18.0519 22.9998 18.0113 22.8918L18.0198 22.8537ZM20.0553 23.3335L20.1011 23.0812L20.2384 23.0777C20.3488 23.2121 20.4201 23.3743 20.4444 23.5465C20.3053 23.4979 20.1719 23.4345 20.0464 23.3574L20.0553 23.3335ZM28.2912 23.5254L28.3272 23.4487C28.3567 23.4906 28.3431 23.5147 28.2912 23.5254ZM30.4547 23.4381L30.2526 23.3152C30.3249 23.3081 30.3977 23.3062 30.4704 23.3098L30.4547 23.4381ZM27.4385 19.3672L27.4161 19.4199C27.3593 19.4213 27.2977 19.4229 27.2409 19.4243L27.1395 19.351C27.2625 19.3432 27.3572 19.3408 27.4574 19.3667L27.4385 19.3672ZM15.1388 17.1777C15.3018 17.3456 15.4784 17.4997 15.6668 17.6383C16.1087 17.9548 16.5123 18.3216 16.8694 18.7313C16.9081 18.7956 16.9311 18.8681 16.9363 18.9429L16.4651 19.0495L16.464 19.0068C16.3793 19.2274 16.2769 19.4407 16.1577 19.6448C16.1207 19.6384 16.0841 19.6298 16.0481 19.6191C16.0462 19.5433 16.1692 19.5355 16.1328 19.4037L15.9575 19.5977C15.8906 19.5756 15.8239 19.5583 15.757 19.5363C15.7502 19.2664 15.9677 19.0572 16.1571 19.0524C15.8082 17.7959 15.8647 19.1071 15.3402 18.7886L15.4642 18.8186L15.7324 17.7978L15.4283 18.3314C15.1942 17.6881 14.9443 17.9265 14.587 17.4711C14.6881 17.7244 15.3851 18.6879 15.0247 19.0571C14.9937 19.0271 14.9557 19.0052 14.9141 18.9935L14.827 18.9199C14.8436 18.9394 14.857 18.9614 14.8665 18.9852C14.786 18.9872 14.6925 19.037 14.5877 19.2054C14.5753 18.7082 14.3701 18.8413 14.1057 18.8811L14.09 18.2512C13.8297 18.4567 13.8667 18.797 13.7273 19.099C13.6827 19.0901 13.6405 19.0721 13.6031 19.0461C13.5658 19.0201 13.5342 18.9868 13.5103 18.9481C13.8358 18.1979 14.3126 17.523 14.9108 16.9654L15.1388 17.1777ZM15.2395 18.739C15.2389 18.7153 15.191 18.6975 15.1666 18.6697L15.3394 18.5659L15.2395 18.739ZM19.0149 9.59824C19.0251 9.53216 19.0234 9.46482 19.01 9.39933C19.0782 9.47345 19.2245 9.45083 19.0149 9.59824ZM105.006 44.5032L104.998 44.2096C105.393 44.6594 105.206 44.5693 105.005 44.4843L105.006 44.5032ZM65.6821 4.30296C65.1523 4.71901 64.9966 4.36751 64.5618 4.03246C64.8837 4.01967 65.5732 3.9266 65.6817 4.28402L65.6821 4.30296ZM41.7675 1.34264C41.4478 1.3879 41.1219 1.35542 40.8174 1.24795C40.9976 1.06336 41.3691 1.13937 41.767 1.32369L41.7675 1.34264Z" fill="#15BFFD"/>
</svg>
