 <svg width="1440" height="6283" viewBox="0 0 1440 6283" fill="none" xmlns="http://www.w3.org/2000/svg">
<g clip-path="url(#clip0_4088_1173)">
<rect width="1440" height="6283" fill="#080B2A"/>
<g filter="url(#filter0_f_4088_1173)">
<circle cx="1300" cy="3314" r="178" fill="#2A3E84"/>
</g>
<g filter="url(#filter1_f_4088_1173)">
<circle cx="145" cy="4015" r="178" fill="#2A3E84"/>
</g>
<g filter="url(#filter2_f_4088_1173)">
<circle cx="1320" cy="4344" r="178" fill="#2A3E84"/>
</g>
<g filter="url(#filter3_f_4088_1173)">
<circle cx="1320" cy="5750" r="178" fill="#2A3E84"/>
</g>
<g filter="url(#filter4_f_4088_1173)">
<circle cx="146" cy="5437" r="204" fill="#2A3E84"/>
</g>
<g filter="url(#filter5_f_4088_1173)">
<circle cx="172" cy="153" r="178" fill="#2A3E84"/>
</g>
<g filter="url(#filter6_f_4088_1173)">
<circle cx="1103" cy="434" r="199" fill="#192065"/>
</g>
<g filter="url(#filter7_f_4088_1173)">
<circle cx="1303" cy="142" r="178" fill="#2A3E84"/>
</g>
<g filter="url(#filter8_f_4088_1173)">
<circle cx="155" cy="1443" r="178" fill="#2A3E84"/>
</g>
<g filter="url(#filter9_f_4088_1173)">
<circle cx="155" cy="2272" r="178" fill="#2A3E84"/>
</g>
<path d="M676.383 154.29L675.59 160.898L670.474 164.017L676.344 165.217L679.331 171.165L680.124 164.557L685.24 161.438L679.369 160.237L676.383 154.29Z" fill="#15BFFD"/>
<path d="M941.383 167.29L940.59 173.898L935.474 177.017L941.344 178.217L944.331 184.165L945.124 177.557L950.24 174.438L944.369 173.237L941.383 167.29Z" fill="#15BFFD"/>
<path d="M46.6347 553.767L45.5998 562.39L38.9237 566.461L46.5847 568.027L50.4824 575.789L51.5172 567.166L58.1934 563.095L50.5323 561.529L46.6347 553.767Z" fill="white"/>
<path d="M279.548 207.668L278.522 216.214L271.906 220.249L279.499 221.801L283.361 229.493L284.387 220.947L291.003 216.912L283.411 215.36L279.548 207.668Z" fill="#15BFFD"/>
<path d="M1359.51 163.059L1357.63 178.732L1345.5 186.13L1359.42 188.976L1366.5 203.082L1368.38 187.41L1380.52 180.011L1366.59 177.165L1359.51 163.059Z" fill="#15BFFD"/>
<path d="M1261.02 912.589L1259.05 929.014L1246.33 936.768L1260.92 939.751L1268.35 954.535L1270.32 938.109L1283.03 930.355L1268.44 927.372L1261.02 912.589Z" fill="#15BFFD"/>
<path d="M1044.71 864.4L1043.93 870.933L1038.87 874.017L1044.67 875.203L1047.63 881.084L1048.41 874.551L1053.47 871.466L1047.67 870.28L1044.71 864.4Z" fill="#15BFFD"/>
<path d="M1313.59 2111.85L1312.45 2121.33L1305.11 2125.81L1313.54 2127.53L1317.82 2136.06L1318.96 2126.58L1326.3 2122.1L1317.88 2120.38L1313.59 2111.85Z" fill="#15BFFD"/>
<path d="M902.966 2271.96L902.241 2278L897.563 2280.85L902.931 2281.95L905.662 2287.39L906.387 2281.35L911.065 2278.49L905.697 2277.4L902.966 2271.96Z" fill="#15BFFD"/>
<path d="M147.079 3739.55L145.759 3750.55L137.242 3755.74L147.016 3757.74L151.988 3767.64L153.308 3756.64L161.825 3751.45L152.052 3749.45L147.079 3739.55Z" fill="#15BFFD"/>
<path d="M1362.29 4295.15L1360.97 4306.15L1352.45 4311.34L1362.23 4313.34L1367.2 4323.24L1368.52 4312.24L1377.04 4307.05L1367.26 4305.05L1362.29 4295.15Z" fill="#15BFFD"/>
<path d="M896.154 3792.7L898.397 3796.88L896.693 3800.79L900.605 3799.09L904.78 3801.33L902.537 3797.15L904.241 3793.24L900.329 3794.95L896.154 3792.7Z" fill="#15BFFD"/>
<path d="M983.966 5440.96L982.449 5453.6L972.665 5459.56L983.893 5461.86L989.604 5473.23L991.121 5460.59L1000.9 5454.63L989.678 5452.33L983.966 5440.96Z" fill="#15BFFD"/>
<path d="M793.28 5594.29L792.629 5599.72L788.428 5602.28L793.248 5603.27L795.701 5608.15L796.352 5602.72L800.552 5600.16L795.732 5599.18L793.28 5594.29Z" fill="#15BFFD"/>
<path d="M273.062 5691.06L272.411 5696.48L268.21 5699.05L273.031 5700.03L275.483 5704.92L276.134 5699.49L280.334 5696.93L275.514 5695.94L273.062 5691.06Z" fill="#15BFFD"/>
<path d="M1205.75 2503.18L1205.03 2509.22L1200.35 2512.07L1205.72 2513.17L1208.45 2518.61L1209.17 2512.57L1213.85 2509.72L1208.48 2508.62L1205.75 2503.18Z" fill="#15BFFD"/>
<path d="M1119.26 2452.14L1117.94 2463.11L1109.45 2468.29L1119.2 2470.29L1124.15 2480.16L1125.47 2469.19L1133.97 2464.01L1124.22 2462.02L1119.26 2452.14Z" fill="#15BFFD"/>
<path d="M91.7509 2095.18L91.0258 2101.22L86.3479 2104.07L91.7159 2105.17L94.447 2110.61L95.1721 2104.57L99.85 2101.72L94.482 2100.62L91.7509 2095.18Z" fill="#15BFFD"/>
<path d="M172.751 5264.18L172.026 5270.22L167.348 5273.07L172.716 5274.17L175.447 5279.61L176.172 5273.57L180.85 5270.72L175.482 5269.62L172.751 5264.18Z" fill="#15BFFD"/>
<path d="M284.581 1676.08L283.301 1686.75L275.041 1691.79L284.519 1693.73L289.342 1703.33L290.622 1692.66L298.882 1687.62L289.404 1685.69L284.581 1676.08Z" fill="#15BFFD"/>
<path d="M912.548 716.668L911.94 721.74L908.014 724.134L912.519 725.055L914.811 729.619L915.42 724.548L919.346 722.154L914.84 721.233L912.548 716.668Z" fill="#15BFFD"/>
<path d="M1280.28 261.667C1286.91 268.974 1312.56 280.417 1362.12 267.736C1424.06 251.883 1498.3 259.515 1466.52 330.162C1434.74 400.81 1219.79 565.749 1278.57 647.611C1337.34 729.474 1647.32 569.044 1794.44 602.865C1883.66 618.105 1854.32 722.742 1844.48 737.719" stroke="url(#paint0_linear_4088_1173)" stroke-opacity="0.7" stroke-width="5"/>
<g filter="url(#filter10_f_4088_1173)">
<circle cx="1287" cy="1060" r="178" fill="#2A3E84"/>
</g>
<path d="M551.02 1012.04L550.002 1020.53L543.437 1024.53L550.971 1026.07L554.804 1033.7L555.822 1025.22L562.388 1021.22L554.853 1019.68L551.02 1012.04Z" fill="#15BFFD"/>
<path d="M1321.35 990.206L1319.38 1006.63L1306.66 1014.39L1321.26 1017.37L1328.68 1032.15L1330.65 1015.73L1343.37 1007.97L1328.78 1004.99L1321.35 990.206Z" fill="#15BFFD"/>
<path d="M701.351 1280.21L699.38 1296.63L686.664 1304.39L701.256 1307.37L708.68 1322.15L710.651 1305.73L723.367 1297.97L708.775 1294.99L701.351 1280.21Z" fill="#15BFFD"/>
</g>
<defs>
<filter id="filter0_f_4088_1173" x="772" y="2786" width="1056" height="1056" filterUnits="userSpaceOnUse" color-interpolation-filters="sRGB">
<feFlood flood-opacity="0" result="BackgroundImageFix"/>
<feBlend mode="normal" in="SourceGraphic" in2="BackgroundImageFix" result="shape"/>
<feGaussianBlur stdDeviation="175" result="effect1_foregroundBlur_4088_1173"/>
</filter>
<filter id="filter1_f_4088_1173" x="-383" y="3487" width="1056" height="1056" filterUnits="userSpaceOnUse" color-interpolation-filters="sRGB">
<feFlood flood-opacity="0" result="BackgroundImageFix"/>
<feBlend mode="normal" in="SourceGraphic" in2="BackgroundImageFix" result="shape"/>
<feGaussianBlur stdDeviation="175" result="effect1_foregroundBlur_4088_1173"/>
</filter>
<filter id="filter2_f_4088_1173" x="792" y="3816" width="1056" height="1056" filterUnits="userSpaceOnUse" color-interpolation-filters="sRGB">
<feFlood flood-opacity="0" result="BackgroundImageFix"/>
<feBlend mode="normal" in="SourceGraphic" in2="BackgroundImageFix" result="shape"/>
<feGaussianBlur stdDeviation="175" result="effect1_foregroundBlur_4088_1173"/>
</filter>
<filter id="filter3_f_4088_1173" x="792" y="5222" width="1056" height="1056" filterUnits="userSpaceOnUse" color-interpolation-filters="sRGB">
<feFlood flood-opacity="0" result="BackgroundImageFix"/>
<feBlend mode="normal" in="SourceGraphic" in2="BackgroundImageFix" result="shape"/>
<feGaussianBlur stdDeviation="175" result="effect1_foregroundBlur_4088_1173"/>
</filter>
<filter id="filter4_f_4088_1173" x="-408" y="4883" width="1108" height="1108" filterUnits="userSpaceOnUse" color-interpolation-filters="sRGB">
<feFlood flood-opacity="0" result="BackgroundImageFix"/>
<feBlend mode="normal" in="SourceGraphic" in2="BackgroundImageFix" result="shape"/>
<feGaussianBlur stdDeviation="175" result="effect1_foregroundBlur_4088_1173"/>
</filter>
<filter id="filter5_f_4088_1173" x="-356" y="-375" width="1056" height="1056" filterUnits="userSpaceOnUse" color-interpolation-filters="sRGB">
<feFlood flood-opacity="0" result="BackgroundImageFix"/>
<feBlend mode="normal" in="SourceGraphic" in2="BackgroundImageFix" result="shape"/>
<feGaussianBlur stdDeviation="175" result="effect1_foregroundBlur_4088_1173"/>
</filter>
<filter id="filter6_f_4088_1173" x="554" y="-115" width="1098" height="1098" filterUnits="userSpaceOnUse" color-interpolation-filters="sRGB">
<feFlood flood-opacity="0" result="BackgroundImageFix"/>
<feBlend mode="normal" in="SourceGraphic" in2="BackgroundImageFix" result="shape"/>
<feGaussianBlur stdDeviation="175" result="effect1_foregroundBlur_4088_1173"/>
</filter>
<filter id="filter7_f_4088_1173" x="775" y="-386" width="1056" height="1056" filterUnits="userSpaceOnUse" color-interpolation-filters="sRGB">
<feFlood flood-opacity="0" result="BackgroundImageFix"/>
<feBlend mode="normal" in="SourceGraphic" in2="BackgroundImageFix" result="shape"/>
<feGaussianBlur stdDeviation="175" result="effect1_foregroundBlur_4088_1173"/>
</filter>
<filter id="filter8_f_4088_1173" x="-373" y="915" width="1056" height="1056" filterUnits="userSpaceOnUse" color-interpolation-filters="sRGB">
<feFlood flood-opacity="0" result="BackgroundImageFix"/>
<feBlend mode="normal" in="SourceGraphic" in2="BackgroundImageFix" result="shape"/>
<feGaussianBlur stdDeviation="175" result="effect1_foregroundBlur_4088_1173"/>
</filter>
<filter id="filter9_f_4088_1173" x="-373" y="1744" width="1056" height="1056" filterUnits="userSpaceOnUse" color-interpolation-filters="sRGB">
<feFlood flood-opacity="0" result="BackgroundImageFix"/>
<feBlend mode="normal" in="SourceGraphic" in2="BackgroundImageFix" result="shape"/>
<feGaussianBlur stdDeviation="175" result="effect1_foregroundBlur_4088_1173"/>
</filter>
<filter id="filter10_f_4088_1173" x="759" y="532" width="1056" height="1056" filterUnits="userSpaceOnUse" color-interpolation-filters="sRGB">
<feFlood flood-opacity="0" result="BackgroundImageFix"/>
<feBlend mode="normal" in="SourceGraphic" in2="BackgroundImageFix" result="shape"/>
<feGaussianBlur stdDeviation="175" result="effect1_foregroundBlur_4088_1173"/>
</filter>
<linearGradient id="paint0_linear_4088_1173" x1="1561.84" y1="192.365" x2="1450.83" y2="949.765" gradientUnits="userSpaceOnUse">
<stop stop-color="#15BFFD"/>
<stop offset="1" stop-color="#9C37FD"/>
</linearGradient>
<clipPath id="clip0_4088_1173">
<rect width="1440" height="6283" fill="white"/>
</clipPath>
</defs>
</svg>
