<svg width="110" height="40" viewBox="0 0 110 40" fill="none" xmlns="http://www.w3.org/2000/svg">
<g clip-path="url(#clip0_795_497)">
<mask id="mask0_795_497" style="mask-type:luminance" maskUnits="userSpaceOnUse" x="0" y="20" width="101" height="20">
<path d="M100.643 20.7092H0V40H100.643V20.7092Z" fill="white"/>
</mask>
<g mask="url(#mask0_795_497)">
<path d="M3.82358 36.9322H10.1051V40H0V20.7092H3.82358V36.9322Z" fill="#202526"/>
<path d="M25.8041 34.1756H15.0201C15.2037 35.0695 15.6918 35.8707 16.3998 36.4397C17.1615 37.0324 18.1042 37.3387 19.0658 37.3064C19.8642 37.3138 20.6465 37.0797 21.3119 36.6346C21.9416 36.2145 22.4371 35.6193 22.7382 34.9214L25.2576 36.3861C24.6723 37.5183 23.779 38.459 22.6824 39.0982C21.5858 39.737 20.3313 40.048 19.0658 39.9941C18.0891 40.0051 17.1199 39.8227 16.2131 39.4565C15.3907 39.1254 14.6438 38.6287 14.0182 37.9966C13.3925 37.3648 12.9011 36.6111 12.574 35.7813C12.2355 34.9265 12.0635 34.0142 12.0675 33.0939C12.062 32.1535 12.2433 31.2213 12.6007 30.3526C12.9378 29.5237 13.4338 28.7705 14.0603 28.1354C14.6877 27.5035 15.4299 26.9994 16.2465 26.6505C17.1036 26.2814 18.027 26.0938 18.9591 26.0995C19.8925 26.092 20.8184 26.2678 21.6851 26.6169C22.4976 26.9409 23.235 27.4304 23.8513 28.0547C24.4592 28.6826 24.9392 29.4244 25.2643 30.2383C25.6124 31.1092 25.7868 32.0406 25.7775 32.9796L25.8041 34.1756Z" fill="#202526"/>
<path d="M30.0587 26.3521V24.2981L33.1731 22.1277V26.3658H35.8697V29.1867H33.1731V34.2808C33.1646 34.7594 33.1938 35.238 33.2608 35.7118C33.3017 36.0255 33.4357 36.3191 33.6449 36.554C33.8733 36.7654 34.1607 36.8993 34.4674 36.9373C34.9406 37.0057 35.4186 37.0355 35.8966 37.0264V39.998H35.4651C34.5896 40.0153 33.7152 39.9211 32.863 39.7172C32.2314 39.5677 31.6544 39.2403 31.1978 38.7725C30.7596 38.2789 30.4571 37.6766 30.3214 37.0264C30.1266 36.1274 30.0383 35.2079 30.0587 34.2877V29.173H27.7666V26.3521H30.0587Z" fill="#202526"/>
<path d="M40.0766 39.1467C39.1187 38.5884 38.3466 37.7512 37.8594 36.743L40.6558 35.404C40.9409 35.9938 41.3833 36.4902 41.9322 36.8369C42.4985 37.1799 43.1483 37.3538 43.8074 37.339C44.404 37.3844 44.9974 37.2162 45.4852 36.8636C45.6576 36.7299 45.7975 36.5577 45.8945 36.3606C45.9915 36.1631 46.0428 35.9458 46.0445 35.7254C46.0484 35.6128 46.0274 35.5007 45.9831 35.3975C45.9385 35.2945 45.8718 35.2028 45.788 35.1294C45.5901 34.964 45.3681 34.8306 45.13 34.7345C44.8144 34.6097 44.4883 34.5132 44.1561 34.4465L42.998 34.1989C42.4323 34.0783 41.873 33.9311 41.3269 33.7637C40.81 33.6153 40.3177 33.3898 39.8661 33.0939C39.4366 32.7989 39.0769 32.4099 38.8134 31.9557C38.5286 31.4227 38.3898 30.8213 38.4119 30.215C38.4102 29.6789 38.537 29.1504 38.7806 28.6749C39.0287 28.158 39.3833 27.7014 39.8201 27.3359C40.3003 26.9358 40.8489 26.6293 41.4388 26.432C42.1225 26.2048 42.8382 26.094 43.5573 26.1039C44.6983 26.0611 45.8312 26.3171 46.8471 26.8472C47.6988 27.3183 48.412 28.0116 48.9133 28.8559L46.3406 30.1949C46.0759 29.7245 45.6888 29.3376 45.222 29.0766C44.7163 28.7958 44.1466 28.655 43.5705 28.6684C43.0073 28.6218 42.4452 28.7731 41.9782 29.0967C41.8226 29.2131 41.6956 29.364 41.6064 29.5382C41.5176 29.7121 41.4691 29.905 41.4651 30.1013C41.4702 30.3228 41.5481 30.5362 41.6866 30.7072C41.8248 30.8783 42.0157 30.9975 42.2282 31.0451C42.9605 31.295 43.7076 31.4962 44.4653 31.6477C45.012 31.7586 45.5522 31.8993 46.084 32.0695C46.6072 32.2236 47.1073 32.4488 47.571 32.7393C48.0117 33.0315 48.3828 33.4204 48.6567 33.8775C48.9477 34.4085 49.091 35.0105 49.0711 35.6182C49.0644 36.126 48.957 36.627 48.7554 37.0914C48.5239 37.638 48.1782 38.1271 47.742 38.524C47.262 38.9875 46.696 39.3495 46.0773 39.5887C45.3047 39.8772 44.4855 40.0159 43.6627 39.9972C42.4152 40.0329 41.18 39.7401 40.0766 39.1467Z" fill="#202526"/>
<path d="M100.061 20.7092C100.371 20.7092 100.622 20.9632 100.622 21.2766V23.2649C100.622 23.5782 100.371 23.8322 100.061 23.8322H95.542V40H91.7185V23.8322H89.1786H87.1994C86.8896 23.8322 86.6387 23.5782 86.6387 23.2649V21.2766C86.6387 20.9632 86.8896 20.7092 87.1994 20.7092H100.061Z" fill="#202526"/>
<path d="M54.7299 39.2358C53.5973 38.7589 52.5712 38.0596 51.7128 37.179C50.8721 36.3087 50.2107 35.2809 49.7667 34.1541C49.2946 32.9504 49.0591 31.6667 49.0728 30.3733C49.0639 29.0451 49.3204 27.7288 49.827 26.5016C50.303 25.3682 50.9977 24.3402 51.8712 23.4769C52.7347 22.6133 53.7599 21.9297 54.8882 21.4654C56.0845 20.9706 57.3653 20.7137 58.6597 20.7092C59.5128 20.7084 60.3625 20.8202 61.1864 21.0419C61.9767 21.2621 62.7367 21.5796 63.4493 21.9871C64.1538 22.3833 64.8009 22.8744 65.3725 23.4466C65.9547 24.0201 66.4616 24.6655 66.8813 25.3673L63.864 27.3183C63.363 26.3948 62.6523 25.6023 61.7897 25.0044C60.8733 24.416 59.8001 24.1206 58.7124 24.1575C57.8666 24.1488 57.0278 24.3108 56.2459 24.6338C55.5165 24.9348 54.8546 25.3798 54.2998 25.9421C53.7473 26.5061 53.3113 27.1743 53.0175 27.9081C52.7061 28.6843 52.5496 29.5141 52.5575 30.3507C52.5505 31.1748 52.7066 31.9921 53.0175 32.7552C53.3119 33.4809 53.7419 34.143 54.2849 34.7061C54.8322 35.2687 55.4862 35.716 56.2081 36.0219C56.9748 36.3436 57.7985 36.5055 58.6294 36.4985C59.8063 36.5356 60.9633 36.1878 61.9257 35.5078C62.8228 34.8522 63.5413 33.981 64.0148 32.9745L67.1981 34.6457C66.7885 35.4301 66.2816 36.1592 65.6895 36.8159C65.1106 37.4681 64.4457 38.038 63.7131 38.5098C62.9694 38.9941 62.1586 39.366 61.307 39.6139C60.4457 39.8724 59.5512 40.0023 58.6521 39.9994C57.3065 40.0139 55.972 39.7541 54.7299 39.2358Z" fill="#202526"/>
<path d="M72.1995 26.3946V28.4426C72.4994 27.7841 72.9965 27.234 73.6225 26.8675C74.2485 26.5009 74.9732 26.3357 75.6973 26.3946C76.1599 26.3857 76.6216 26.4409 77.069 26.5585C77.4385 26.6551 77.7954 26.7948 78.1321 26.975L76.9454 29.9444C76.7006 29.7875 76.4382 29.659 76.1635 29.5623C75.8041 29.4508 75.4287 29.4 75.0525 29.4119C74.6738 29.3895 74.2945 29.4471 73.9398 29.5813C73.5852 29.7155 73.2631 29.9231 72.9948 30.1904C72.4638 30.9257 72.2202 31.8284 72.3091 32.7296V40H69.1611V26.422L72.1995 26.3946Z" fill="#202526"/>
<path d="M82.0615 32.716C80.9505 32.118 80.3951 31.1793 80.3951 29.8993C80.3951 29.2536 80.5605 28.6675 80.8913 28.1412C81.2224 27.6029 81.7248 27.1783 82.3984 26.8674C83.0721 26.5444 83.8994 26.383 84.8806 26.383C85.8615 26.383 86.6829 26.5444 87.3448 26.8674C88.0185 27.1783 88.5208 27.6029 88.8519 28.1412C89.1827 28.6675 89.3481 29.2536 89.3481 29.8993C89.3481 30.5452 89.1945 31.1075 88.8872 31.5858C88.5918 32.0641 88.19 32.4408 87.6818 32.716C88.3198 33.0269 88.8104 33.4576 89.1533 34.0076C89.4959 34.5461 89.6674 35.1798 89.6674 35.9095C89.6674 36.7586 89.4547 37.4942 89.0291 38.1163C88.6035 38.7262 88.0243 39.1926 87.2915 39.5157C86.5708 39.8386 85.767 40 84.8806 40C83.9942 40 83.1845 39.8386 82.4517 39.5157C81.7307 39.1926 81.1574 38.7262 80.7318 38.1163C80.3062 37.4942 80.0938 36.7586 80.0938 35.9095C80.0938 35.1679 80.265 34.5282 80.6079 33.9898C80.9505 33.4397 81.4352 33.015 82.0615 32.716ZM85.2363 30.0709C85.2363 29.5804 85.2876 30.1228 85.2363 30.0709C84.9644 29.7957 85.2453 30.08 85.2363 30.0709C84.7755 30.0709 85.2139 30.0445 85.4202 29.9291C85.1483 30.2042 85.2363 30.0709 85.2363 30.0709C85.2363 30.0709 85.1365 29.6539 85.4202 29.9291C85.7037 30.192 84.7872 30.0709 85.2363 30.0709C85.2534 30.0868 85.1399 30.0709 85.2363 30.0709ZM84.8806 34.0437C84.325 34.0437 83.8758 34.1991 83.533 34.5101C83.1904 34.8091 83.0188 35.2278 83.0188 35.7659C83.0188 36.2684 83.1845 36.6808 83.5153 37.004C83.8582 37.3268 84.3132 37.4882 84.8806 37.4882C85.4477 37.4882 85.8909 37.3268 86.2102 37.004C86.5411 36.6808 86.7067 36.2684 86.7067 35.7659C86.7067 35.2397 86.5352 34.821 86.1926 34.5101C85.8615 34.1991 85.4242 34.0437 84.8806 34.0437Z" fill="#202526"/>
</g>
<mask id="mask1_795_497" style="mask-type:luminance" maskUnits="userSpaceOnUse" x="78" y="0" width="32" height="20">
<path d="M109.09 0H78.7764V19.2908H109.09V0Z" fill="white"/>
</mask>
<g mask="url(#mask1_795_497)">
<path d="M87.0901 18.5793L80.0695 7.32544C80.0412 7.27991 80.0939 7.2272 80.1385 7.25654L91.1593 14.4993C91.2055 14.5296 91.2675 14.5033 91.2784 14.4486L93.8867 1.34254C93.8974 1.2892 93.9725 1.28866 93.984 1.34184L96.7947 14.4909C96.802 14.5253 96.8415 14.5416 96.8704 14.5221L107.723 7.26258C107.768 7.23265 107.821 7.28584 107.792 7.33151L100.678 18.5793" stroke="#FF5A12" stroke-width="4.29778"/>
<path d="M87.0897 18.5792L79.9482 7.1318L91.2553 14.5626L93.9334 1.10684L96.8097 14.5626L107.918 7.1318L100.678 18.5792" stroke="#F4F4F4" stroke-width="0.429778"/>
</g>
</g>
<defs>
<clipPath id="clip0_795_497">
<rect width="109.333" height="40" fill="white"/>
</clipPath>
</defs>
</svg>
